<svg width="16" height="16" viewBox="0 0 16 16" fill="none" xmlns="http://www.w3.org/2000/svg">
<path fill-rule="evenodd" clip-rule="evenodd" d="M2.25025 4.08108C2.50844 3.93328 2.85727 3.99319 3.0294 4.2149C3.0735 4.2717 3.11993 4.32773 3.16864 4.38404C3.20112 4.36551 3.23635 4.34962 3.2741 4.33686C3.5628 4.23919 3.88905 4.361 4.00278 4.60891C4.36048 5.38863 4.74681 6.02182 5.35985 6.61509C5.53318 6.78283 5.68859 6.95699 5.82994 7.11659L5.85794 7.14821L5.85795 7.14823C5.99195 7.2996 6.11304 7.43638 6.24113 7.56471C6.50668 7.83075 6.72093 8.11907 6.91148 8.38754C6.9548 8.44858 6.99658 8.50809 7.03744 8.56631L7.03745 8.56632L7.03746 8.56633L7.03747 8.56635L7.03748 8.56636L7.0375 8.56639C7.17996 8.76934 7.31132 8.95646 7.45818 9.13696C7.63447 8.94687 7.82112 8.76777 8.00498 8.59796C8.12134 8.49049 8.23372 8.38918 8.34294 8.29073L8.34295 8.29072C8.54089 8.11229 8.72841 7.94325 8.91027 7.76395L8.97124 7.70383C9.40867 7.27246 9.8617 6.82569 10.3341 6.40498C10.4635 6.28974 10.6075 6.17344 10.7462 6.06231L10.8016 6.01795C10.9242 5.9199 11.0431 5.82474 11.1582 5.72744C11.4294 5.49819 11.629 5.29756 11.7348 5.11578C11.8736 4.87745 12.2111 4.78085 12.4886 4.90001L12.4903 4.90074C12.6707 4.6953 12.8314 4.50618 12.9355 4.32742C13.0743 4.08909 13.4118 3.99249 13.6893 4.11166C13.9668 4.23082 14.0793 4.52063 13.9406 4.75896C13.8095 4.98409 13.6201 5.21507 13.4466 5.41482C13.4834 5.4779 13.5019 5.53821 13.5101 5.58092C13.5331 5.70201 13.5104 5.81375 13.479 5.89676C13.447 5.9817 13.3881 6.08375 13.286 6.1714C13.2368 6.2136 13.1932 6.26966 13.1109 6.38216L13.1024 6.39368C13.0312 6.49117 12.9253 6.63613 12.7759 6.76438C12.6803 6.84653 12.5976 6.93994 12.4893 7.06419L12.4799 7.07496C12.3803 7.18929 12.2555 7.33255 12.1011 7.46518C11.6818 7.82523 11.3148 8.23328 10.9237 8.66817L10.9237 8.66817L10.9237 8.66818L10.8654 8.73302C10.6035 9.02402 10.3016 9.32303 10.0134 9.60834L10.0134 9.60835L10.0134 9.60835L10.0134 9.60837L10.0134 9.60839L10.0134 9.60841L10.0133 9.6085C9.83061 9.7894 9.6535 9.96478 9.4957 10.1291C9.06277 10.58 8.69394 11.0241 8.44642 11.5243C8.3578 11.7033 8.158 11.8126 7.94545 11.8179C7.90713 11.8593 7.86019 11.8959 7.80517 11.9257C7.54264 12.0677 7.19571 12.0001 7.03029 11.7747C6.85125 11.5307 6.66505 11.297 6.47184 11.0544L6.47182 11.0544L6.4718 11.0544L6.47179 11.0544L6.47176 11.0543C6.37135 10.9283 6.26904 10.7998 6.16487 10.6664C5.86835 10.2864 5.57137 9.8833 5.32797 9.4492C5.3022 9.40324 5.27659 9.35556 5.25123 9.3069C5.20162 9.24807 5.15427 9.19026 5.10843 9.1343L5.06303 9.07894C4.87455 8.84965 4.66496 8.6294 4.44087 8.39852L4.34902 8.30405L4.34902 8.30405C4.15562 8.1053 3.95239 7.89644 3.76093 7.6799C3.53784 7.42759 3.32646 7.20822 3.07985 6.99644C2.86043 6.80803 2.86043 6.50254 3.07985 6.31413C3.14504 6.25814 3.22227 6.2188 3.30438 6.19608C3.19097 5.98792 3.01468 5.77537 2.79532 5.53582C2.74302 5.47871 2.68705 5.41887 2.62925 5.35706L2.62925 5.35706C2.45059 5.166 2.25436 4.95616 2.09442 4.75015C1.9223 4.52844 1.99207 4.22889 2.25025 4.08108Z" fill="white"/>
</svg>
