<svg width="100" height="38" viewBox="0 0 100 38" fill="none" xmlns="http://www.w3.org/2000/svg">
<path d="M11.8393 0.0532949C8.79073 0.103845 5.7697 0.48526 2.73861 0.674425C1.47352 0.753377 0.546496 2.17774 0.546496 3.4453C0.546496 4.32234 0.910128 5.21891 0.910128 6.1119C0.910128 9.58098 1.09194 13.0716 1.09194 16.5638C1.09194 20.658 0.182863 24.7314 0.182863 28.824C0.182863 30.121 0.00104676 31.3674 0.00104676 32.6758C0.00104676 33.8995 -0.0536275 35.6393 0.627303 36.7216C1.06429 37.4162 1.74729 37.1916 2.62728 37.1916C3.66383 37.1916 4.70194 37.1771 5.73836 37.1916C7.89632 37.2219 9.99642 37.2644 12.1625 37.2018C14.019 37.1482 15.8593 37.0077 17.718 37.0077C21.8863 37.0077 26.0369 37.573 30.2028 37.2325C35.1935 36.8246 40.3272 37.3755 45.3137 37.3755C51.448 37.3755 57.5652 37.6386 63.6973 37.7433C67.5155 37.8085 71.3325 37.9656 75.1518 37.917C77.6169 37.8857 80.0799 37.7181 82.5456 37.7842C86.2808 37.8844 90.0728 38.1269 93.8082 37.917C95.3024 37.833 96.7808 37.5594 98.2828 37.5594C99.2447 37.5594 99.4157 37.1524 99.4546 36.1699C99.4959 35.1249 99.8182 34.1014 99.8182 33.0436C99.8182 31.3293 100 29.6119 100 27.9147V18.791V10.8934C100 8.1193 99.6364 5.28495 99.6364 2.53599C99.6364 0.532642 96.8122 1.09919 95.596 1.1465C89.9744 1.3652 84.336 1.69821 78.7073 1.69821C67.894 1.69821 57.0871 1.2109 46.2632 1.1465C43.2245 1.12842 40.2028 0.680942 37.1623 0.605006C33.3162 0.508952 29.4807 0.464397 25.6371 0.226982C21.054 -0.0561176 16.4297 -0.0228208 11.8393 0.0532949Z" fill="#0A3E54"/>
</svg>
