<svg width="200" height="200" viewBox="0 0 200 200" fill="none" xmlns="http://www.w3.org/2000/svg">
<path d="M153.7 174.4C158.6 170.8 163.8 167.6 168.3 163.5C173.5 158.8 178.8 153.9 181.6 147.1C181.9 146.3 184.1 146.2 185.3 145.7C185.4 146.1 185.5 146.4 185.6 146.8C183.8 149.8 182.2 153 180.2 155.9C174.1 165.2 166 172.7 158.1 180.4C156.7 181.8 154.3 182.1 152.3 182.9C148.4 184.6 143.3 185.4 140.8 188.3C130.1 201 115.2 197.7 101.8 199.2C86.6999 200.9 71.9999 196.9 58.3999 190.7C45.3999 184.8 33.7999 176.5 24.9999 164.8C19.7999 157.8 13.4999 151.3 9.7999 143.6C1.8999 127.1 -0.700072 109.6 0.699928 91C2.19993 72.4 8.89993 56.3 19.1999 41.4C28.6999 27.5 41.7999 17.6 56.8999 10.5C77.8999 0.600014 99.8999 -1.49999 122.6 3.30001C137.4 6.50001 150.9 12.4 162.6 22.2C164.2 23.6 166.5 24.8 168.5 24.8C170 24.9 171.7 23.1 173.2 21.9C177.6 18.5 181.9 15.1 186.2 11.7C186.6 12 187 12.3 187.4 12.7C185.7 16.7 184 20.7 182.2 24.9C188.4 23.5 191.5 15.6 198.5 16.2C198.7 16.6 198.9 17 199.2 17.4C197.8 18.7 196.2 19.9 195 21.4C190.9 26.8 187.5 32.8 182.4 37.5C181.7 38.2 181.9 41 182.7 42.1C190.4 52.9 193.1 65.7 196.7 78C198.1 82.8 197.6 88.2 197.3 93.5C193.5 83.5 192.7 72.4 186.3 62C185 64.9 184.1 66.9 183 69.3C178.7 62.7 174.6 56.3 170.1 49.2C150.8 67 132 84.4 112.9 101.9C119.7 110.7 128 117.7 136.9 124.1C141.2 127.2 144.6 131.7 148.4 135.5C148 136 147.7 136.5 147.3 137C145 136.2 142.7 135.4 140.3 134.5C137.6 140.1 137.6 140.1 132 137.6C119.7 132.1 108.4 125.2 98.9999 113.9C92.4999 121.1 87.0999 128.4 80.4999 134.2C74.1999 139.8 66.5999 143.9 59.4999 148.6C59.0999 148.2 58.6999 147.7 58.2999 147.3C59.3999 146 60.3999 144.7 61.4999 143.5C66.1999 138.8 66.1999 138.4 60.2999 135.4C67.9999 125.6 75.5999 115.7 83.3999 105.9C85.0999 103.8 85.2999 102.6 83.3999 100.5C78.4999 95.1 73.2999 89.9 69.1999 83.9C65.1999 78 62.2999 71.3 58.8999 64.9C66.1999 61.7 68.2999 68 72.2999 70C72.5999 70.4 72.9999 70.8 73.2999 71.3C73.3999 71.2 73.5999 71 73.5999 71C73.3999 70.5 73.0999 70.1 72.7999 69.7C71.3999 67.3 70.1999 64.7 68.3999 62.6C66.2999 60.1 65.1999 57.7 67.4999 54.5C68.6999 55.8 69.8999 57.4 71.3999 58.5C74.0999 60.3 73.8999 66 79.2999 64.4C79.7999 64.3 80.8999 66.3 81.6999 67.3C87.8999 74.4 94.0999 81.4 99.2999 87.5C117.8 69.7 135.7 52.5 154.7 34.3C148.8 31.1 143.9 27.9 138.6 25.5C91.9999 4.90001 36.3999 24.1 21.4999 77.9C18.8999 87.4 17.4999 98.3 19.1999 107.9C24.4999 137.8 40.4999 160.3 69.2999 172.5C85.7999 179.5 102.6 179.8 119.8 176.5C120.4 176.4 121.2 175.8 121.7 175.9C130.9 179.1 137.5 173 144.3 169C156.6 161.8 166.6 151.9 174.6 140.2C177.2 136.4 178.7 131.7 181.1 126.7C181.2 128.3 181.6 129.5 181.3 130.3C179.9 133.8 178.3 137.3 176.6 140.7C173.6 146.7 171.1 153 167.2 158.4C163.9 163 159.1 166.5 154.9 170.6C154 171.5 153.1 172.4 152.2 173.3C142.2 178.2 132.1 183 122.5 187.7C134.3 186.4 144.6 181.8 153.7 174.4ZM116 190.8C115.9 190.5 115.9 190.2 115.8 189.9C108.6 189.9 101.5 189.9 94.2999 189.9C94.2999 190.2 94.2999 190.5 94.2999 190.8C101.5 190.8 108.7 190.8 116 190.8Z" fill="#0A3E54"/>
<path d="M153.7 174.4C144.5 181.8 134.2 186.4 123.3 188.1C132.9 183.5 142.9 178.6 153 173.7C153.3 173.9 153.5 174.2 153.7 174.4Z" fill="#0A3E54"/>
<path d="M116 190.8C108.8 190.8 101.6 190.8 94.3999 190.8C94.3999 190.5 94.3999 190.2 94.3999 189.9C101.6 189.9 108.7 189.9 115.9 189.9C115.8 190.2 115.9 190.5 116 190.8Z" fill="#0A3E54"/>
<path d="M73.3999 70.2C73.6999 70.6 73.8999 71.1 74.1999 71.5C74.1999 71.5 73.9999 71.7 73.8999 71.8C73.5999 71.4 73.1999 71 72.8999 70.5C73.0999 70.5 73.1999 70.3 73.3999 70.2Z" fill="#0A3E54"/>
</svg>
