<svg width="171" height="48" viewBox="0 0 171 48" fill="none" xmlns="http://www.w3.org/2000/svg">
<g filter="url(#filter0_b_233_1273)">
<rect width="48" height="48" rx="24" fill="white"/>
<mask id="mask0_233_1273" style="mask-type:alpha" maskUnits="userSpaceOnUse" x="12" y="12" width="24" height="24">
<rect x="12" y="12" width="24" height="24" fill="#D9D9D9"/>
</mask>
<g mask="url(#mask0_233_1273)">
<path d="M24 34C22.6333 34 21.3417 33.7373 20.125 33.212C18.9083 32.6873 17.846 31.9707 16.938 31.062C16.0293 30.154 15.3127 29.0917 14.788 27.875C14.2627 26.6583 14 25.3667 14 24C14 22.6167 14.2627 21.321 14.788 20.113C15.3127 18.9043 16.0293 17.846 16.938 16.938C17.846 16.0293 18.9083 15.3123 20.125 14.787C21.3417 14.2623 22.6333 14 24 14C25.3833 14 26.679 14.2623 27.887 14.787C29.0957 15.3123 30.154 16.0293 31.062 16.938C31.9707 17.846 32.6873 18.9043 33.212 20.113C33.7373 21.321 34 22.6167 34 24C34 25.3667 33.7373 26.6583 33.212 27.875C32.6873 29.0917 31.9707 30.154 31.062 31.062C30.154 31.9707 29.0957 32.6873 27.887 33.212C26.679 33.7373 25.3833 34 24 34ZM24 31.95C24.4333 31.35 24.8083 30.725 25.125 30.075C25.4417 29.425 25.7 28.7333 25.9 28H22.1C22.3 28.7333 22.5583 29.425 22.875 30.075C23.1917 30.725 23.5667 31.35 24 31.95ZM21.4 31.55C21.1 31 20.8377 30.429 20.613 29.837C20.3877 29.2457 20.2 28.6333 20.05 28H17.1C17.5833 28.8333 18.1873 29.5583 18.912 30.175C19.6373 30.7917 20.4667 31.25 21.4 31.55ZM26.6 31.55C27.5333 31.25 28.3623 30.7917 29.087 30.175C29.8123 29.5583 30.4167 28.8333 30.9 28H27.95C27.8 28.6333 27.6127 29.2457 27.388 29.837C27.1627 30.429 26.9 31 26.6 31.55ZM16.25 26H19.65C19.6 25.6667 19.5623 25.3373 19.537 25.012C19.5123 24.6873 19.5 24.35 19.5 24C19.5 23.65 19.5123 23.3127 19.537 22.988C19.5623 22.6627 19.6 22.3333 19.65 22H16.25C16.1667 22.3333 16.104 22.6627 16.062 22.988C16.0207 23.3127 16 23.65 16 24C16 24.35 16.0207 24.6873 16.062 25.012C16.104 25.3373 16.1667 25.6667 16.25 26ZM21.65 26H26.35C26.4 25.6667 26.4377 25.3373 26.463 25.012C26.4877 24.6873 26.5 24.35 26.5 24C26.5 23.65 26.4877 23.3127 26.463 22.988C26.4377 22.6627 26.4 22.3333 26.35 22H21.65C21.6 22.3333 21.5627 22.6627 21.538 22.988C21.5127 23.3127 21.5 23.65 21.5 24C21.5 24.35 21.5127 24.6873 21.538 25.012C21.5627 25.3373 21.6 25.6667 21.65 26ZM28.35 26H31.75C31.8333 25.6667 31.896 25.3373 31.938 25.012C31.9793 24.6873 32 24.35 32 24C32 23.65 31.9793 23.3127 31.938 22.988C31.896 22.6627 31.8333 22.3333 31.75 22H28.35C28.4 22.3333 28.4373 22.6627 28.462 22.988C28.4873 23.3127 28.5 23.65 28.5 24C28.5 24.35 28.4873 24.6873 28.462 25.012C28.4373 25.3373 28.4 25.6667 28.35 26ZM27.95 20H30.9C30.4167 19.1667 29.8123 18.4417 29.087 17.825C28.3623 17.2083 27.5333 16.75 26.6 16.45C26.9 17 27.1627 17.5707 27.388 18.162C27.6127 18.754 27.8 19.3667 27.95 20ZM22.1 20H25.9C25.7 19.2667 25.4417 18.575 25.125 17.925C24.8083 17.275 24.4333 16.65 24 16.05C23.5667 16.65 23.1917 17.275 22.875 17.925C22.5583 18.575 22.3 19.2667 22.1 20ZM17.1 20H20.05C20.2 19.3667 20.3877 18.754 20.613 18.162C20.8377 17.5707 21.1 17 21.4 16.45C20.4667 16.75 19.6373 17.2083 18.912 17.825C18.1873 18.4417 17.5833 19.1667 17.1 20Z" fill="#01141B"/>
</g>
<path d="M42.8027 9H42V39H42.8027C43.8401 37.2066 45.7792 36 48 36C50.2208 36 52.1599 37.2066 53.1973 39H54V9H53.1973C52.1599 10.7934 50.2208 12 48 12C45.7792 12 43.8401 10.7934 42.8027 9Z" fill="white"/>
</g>
<rect x="48" width="123" height="48" rx="24" fill="white"/>
<path d="M67.174 31.204C66.2673 31.204 65.4287 31.0397 64.658 30.711C63.8987 30.3823 63.23 29.9233 62.652 29.334C62.0853 28.7447 61.6433 28.0533 61.326 27.26C61.0087 26.4667 60.85 25.5997 60.85 24.659C60.85 23.7183 61.003 22.8513 61.309 22.058C61.6263 21.2533 62.0683 20.562 62.635 19.984C63.213 19.3947 63.8873 18.9413 64.658 18.624C65.4287 18.2953 66.2673 18.131 67.174 18.131C68.0807 18.131 68.891 18.284 69.605 18.59C70.3303 18.896 70.9423 19.304 71.441 19.814C71.9397 20.3127 72.2967 20.8623 72.512 21.463L70.438 22.432C70.2 21.7973 69.7977 21.276 69.231 20.868C68.6643 20.4487 67.9787 20.239 67.174 20.239C66.3807 20.239 65.678 20.426 65.066 20.8C64.4653 21.174 63.995 21.6897 63.655 22.347C63.3263 23.0043 63.162 23.775 63.162 24.659C63.162 25.543 63.3263 26.3193 63.655 26.988C63.995 27.6453 64.4653 28.161 65.066 28.535C65.678 28.909 66.3807 29.096 67.174 29.096C67.9787 29.096 68.6643 28.892 69.231 28.484C69.7977 28.0647 70.2 27.5377 70.438 26.903L72.512 27.872C72.2967 28.4727 71.9397 29.028 71.441 29.538C70.9423 30.0367 70.3303 30.439 69.605 30.745C68.891 31.051 68.0807 31.204 67.174 31.204ZM79.068 31.204C78.1614 31.204 77.334 30.9943 76.586 30.575C75.8494 30.1557 75.26 29.5833 74.818 28.858C74.3874 28.1327 74.172 27.3053 74.172 26.376C74.172 25.4467 74.3874 24.6193 74.818 23.894C75.26 23.1687 75.8494 22.5963 76.586 22.177C77.3227 21.7577 78.15 21.548 79.068 21.548C79.9747 21.548 80.7964 21.7577 81.533 22.177C82.2697 22.5963 82.8534 23.1687 83.284 23.894C83.726 24.608 83.947 25.4353 83.947 26.376C83.947 27.3053 83.726 28.1327 83.284 28.858C82.842 29.5833 82.2527 30.1557 81.516 30.575C80.7794 30.9943 79.9634 31.204 79.068 31.204ZM79.068 29.164C79.5667 29.164 80.003 29.045 80.377 28.807C80.7624 28.569 81.0627 28.2403 81.278 27.821C81.5047 27.3903 81.618 26.9087 81.618 26.376C81.618 25.832 81.5047 25.356 81.278 24.948C81.0627 24.5287 80.7624 24.2 80.377 23.962C80.003 23.7127 79.5667 23.588 79.068 23.588C78.558 23.588 78.1104 23.7127 77.725 23.962C77.3397 24.2 77.0337 24.5287 76.807 24.948C76.5917 25.356 76.484 25.832 76.484 26.376C76.484 26.9087 76.5917 27.3903 76.807 27.821C77.0337 28.2403 77.3397 28.569 77.725 28.807C78.1104 29.045 78.558 29.164 79.068 29.164ZM86.1459 31V21.752H88.2369V23.571L88.0669 23.248C88.2822 22.6927 88.6335 22.2733 89.1209 21.99C89.6195 21.6953 90.1975 21.548 90.8549 21.548C91.5349 21.548 92.1355 21.6953 92.6569 21.99C93.1895 22.2847 93.6032 22.6983 93.8979 23.231C94.1925 23.7523 94.3399 24.3587 94.3399 25.05V31H92.1129V25.577C92.1129 25.169 92.0335 24.8177 91.8749 24.523C91.7162 24.2283 91.4952 24.0017 91.2119 23.843C90.9399 23.673 90.6169 23.588 90.2429 23.588C89.8802 23.588 89.5572 23.673 89.2739 23.843C88.9905 24.0017 88.7695 24.2283 88.6109 24.523C88.4522 24.8177 88.3729 25.169 88.3729 25.577V31H86.1459ZM100.949 31.102C99.9063 31.102 99.096 30.8187 98.518 30.252C97.9513 29.674 97.668 28.8637 97.668 27.821V23.741H96.07V21.752H96.24C96.6933 21.752 97.0447 21.633 97.294 21.395C97.5433 21.157 97.668 20.8113 97.668 20.358V19.644H99.895V21.752H102.02V23.741H99.895V27.702C99.895 28.008 99.946 28.2687 100.048 28.484C100.161 28.6993 100.331 28.8637 100.558 28.977C100.796 29.0903 101.096 29.147 101.459 29.147C101.538 29.147 101.629 29.1413 101.731 29.13C101.844 29.1187 101.952 29.1073 102.054 29.096V31C101.895 31.0227 101.714 31.0453 101.51 31.068C101.306 31.0907 101.119 31.102 100.949 31.102ZM107.037 31.204C106.391 31.204 105.83 31.0963 105.354 30.881C104.878 30.6657 104.51 30.3597 104.249 29.963C103.989 29.555 103.858 29.0847 103.858 28.552C103.858 28.042 103.972 27.5887 104.198 27.192C104.425 26.784 104.776 26.444 105.252 26.172C105.728 25.9 106.329 25.7073 107.054 25.594L110.08 25.101V26.801L107.479 27.243C107.037 27.3223 106.709 27.464 106.493 27.668C106.278 27.872 106.17 28.1383 106.17 28.467C106.17 28.7843 106.289 29.0393 106.527 29.232C106.777 29.4133 107.083 29.504 107.445 29.504C107.91 29.504 108.318 29.4077 108.669 29.215C109.032 29.011 109.31 28.7333 109.502 28.382C109.706 28.0307 109.808 27.6453 109.808 27.226V24.846C109.808 24.4493 109.65 24.1207 109.332 23.86C109.026 23.588 108.618 23.452 108.108 23.452C107.632 23.452 107.207 23.5823 106.833 23.843C106.471 24.0923 106.204 24.4267 106.034 24.846L104.215 23.962C104.397 23.4747 104.68 23.0553 105.065 22.704C105.462 22.3413 105.927 22.058 106.459 21.854C106.992 21.65 107.57 21.548 108.193 21.548C108.953 21.548 109.621 21.6897 110.199 21.973C110.777 22.245 111.225 22.6303 111.542 23.129C111.871 23.6163 112.035 24.1887 112.035 24.846V31H109.927V29.419L110.403 29.385C110.165 29.7817 109.882 30.116 109.553 30.388C109.225 30.6487 108.851 30.8527 108.431 31C108.012 31.136 107.547 31.204 107.037 31.204ZM119.058 31.204C118.14 31.204 117.312 30.9943 116.576 30.575C115.85 30.1443 115.278 29.5663 114.859 28.841C114.439 28.1043 114.23 27.277 114.23 26.359C114.23 25.441 114.439 24.6193 114.859 23.894C115.278 23.1687 115.85 22.5963 116.576 22.177C117.312 21.7577 118.14 21.548 119.058 21.548C119.715 21.548 120.327 21.667 120.894 21.905C121.46 22.1317 121.948 22.449 122.356 22.857C122.775 23.2537 123.075 23.7297 123.257 24.285L121.302 25.135C121.132 24.6703 120.843 24.2963 120.435 24.013C120.038 23.7297 119.579 23.588 119.058 23.588C118.57 23.588 118.134 23.707 117.749 23.945C117.375 24.183 117.08 24.5117 116.865 24.931C116.649 25.3503 116.542 25.832 116.542 26.376C116.542 26.92 116.649 27.4017 116.865 27.821C117.08 28.2403 117.375 28.569 117.749 28.807C118.134 29.045 118.57 29.164 119.058 29.164C119.59 29.164 120.055 29.0223 120.452 28.739C120.848 28.4557 121.132 28.076 121.302 27.6L123.257 28.484C123.075 29.0053 122.781 29.4757 122.373 29.895C121.965 30.303 121.477 30.626 120.911 30.864C120.344 31.0907 119.726 31.204 119.058 31.204ZM129.672 31.102C128.63 31.102 127.819 30.8187 127.241 30.252C126.675 29.674 126.391 28.8637 126.391 27.821V23.741H124.793V21.752H124.963C125.417 21.752 125.768 21.633 126.017 21.395C126.267 21.157 126.391 20.8113 126.391 20.358V19.644H128.618V21.752H130.743V23.741H128.618V27.702C128.618 28.008 128.669 28.2687 128.771 28.484C128.885 28.6993 129.055 28.8637 129.281 28.977C129.519 29.0903 129.82 29.147 130.182 29.147C130.262 29.147 130.352 29.1413 130.454 29.13C130.568 29.1187 130.675 29.1073 130.777 29.096V31C130.619 31.0227 130.437 31.0453 130.233 31.068C130.029 31.0907 129.842 31.102 129.672 31.102ZM139.818 31.204C139.104 31.204 138.481 31.0453 137.948 30.728C137.427 30.4107 137.025 29.9687 136.741 29.402C136.469 28.8353 136.333 28.1723 136.333 27.413V21.752H138.56V27.226C138.56 27.6113 138.634 27.9513 138.781 28.246C138.94 28.5293 139.161 28.756 139.444 28.926C139.739 29.0847 140.068 29.164 140.43 29.164C140.793 29.164 141.116 29.0847 141.399 28.926C141.683 28.756 141.904 28.5237 142.062 28.229C142.221 27.9343 142.3 27.583 142.3 27.175V21.752H144.527V31H142.419V29.181L142.606 29.504C142.391 30.0707 142.034 30.4957 141.535 30.779C141.048 31.0623 140.476 31.204 139.818 31.204ZM150.626 31.204C149.64 31.204 148.779 30.9717 148.042 30.507C147.317 30.031 146.818 29.3907 146.546 28.586L148.212 27.787C148.45 28.3083 148.779 28.7163 149.198 29.011C149.629 29.3057 150.105 29.453 150.626 29.453C151.034 29.453 151.357 29.3623 151.595 29.181C151.833 28.9997 151.952 28.7617 151.952 28.467C151.952 28.2857 151.901 28.1383 151.799 28.025C151.709 27.9003 151.578 27.7983 151.408 27.719C151.25 27.6283 151.074 27.5547 150.881 27.498L149.368 27.073C148.586 26.8463 147.991 26.5007 147.583 26.036C147.187 25.5713 146.988 25.0217 146.988 24.387C146.988 23.8203 147.13 23.3273 147.413 22.908C147.708 22.4773 148.11 22.143 148.62 21.905C149.142 21.667 149.737 21.548 150.405 21.548C151.278 21.548 152.049 21.7577 152.717 22.177C153.386 22.5963 153.862 23.1857 154.145 23.945L152.445 24.744C152.287 24.3247 152.02 23.9903 151.646 23.741C151.272 23.4917 150.853 23.367 150.388 23.367C150.014 23.367 149.72 23.452 149.504 23.622C149.289 23.792 149.181 24.013 149.181 24.285C149.181 24.455 149.227 24.6023 149.317 24.727C149.408 24.8517 149.533 24.9537 149.691 25.033C149.861 25.1123 150.054 25.186 150.269 25.254L151.748 25.696C152.508 25.9227 153.091 26.2627 153.499 26.716C153.919 27.1693 154.128 27.7247 154.128 28.382C154.128 28.9373 153.981 29.4303 153.686 29.861C153.392 30.2803 152.984 30.609 152.462 30.847C151.941 31.085 151.329 31.204 150.626 31.204Z" fill="#01141B"/>
<defs>
<filter id="filter0_b_233_1273" x="-12" y="-12" width="78" height="72" filterUnits="userSpaceOnUse" color-interpolation-filters="sRGB">
<feFlood flood-opacity="0" result="BackgroundImageFix"/>
<feGaussianBlur in="BackgroundImageFix" stdDeviation="6"/>
<feComposite in2="SourceAlpha" operator="in" result="effect1_backgroundBlur_233_1273"/>
<feBlend mode="normal" in="SourceGraphic" in2="effect1_backgroundBlur_233_1273" result="shape"/>
</filter>
</defs>
</svg>
