<svg width="255" height="18" viewBox="0 0 255 18" fill="none" xmlns="http://www.w3.org/2000/svg">
<path d="M7.88403 2.20117C8.7615 1.09578 10.4243 1.09578 11.2242 2.20117V2.20117C11.6606 2.80431 12.3974 3.11379 13.1513 3.01069V3.01069C14.5331 2.82173 15.6676 3.99677 15.4303 5.37107V5.37107C15.3008 6.12094 15.5843 6.86809 16.1717 7.32542V7.32542C17.2484 8.16358 17.1901 9.82534 16.0546 10.6635V10.6635C15.435 11.1208 15.0991 11.868 15.176 12.6179V12.6179C15.3168 13.9922 14.0998 15.1672 12.7313 14.9782V14.9782C11.9846 14.8751 11.2261 15.1846 10.7473 15.7878V15.7878C9.86986 16.8931 8.20708 16.8931 7.4072 15.7878V15.7878C6.97075 15.1846 6.234 14.8751 5.48005 14.9782V14.9782C4.09828 15.1672 2.96376 13.9922 3.20106 12.6179V12.6179C3.33054 11.868 3.04709 11.1208 2.45963 10.6635V10.6635C1.38298 9.82534 1.4413 8.16358 2.57679 7.32542V7.32542C3.19634 6.86809 3.53224 6.12094 3.45539 5.37107V5.37107C3.31455 3.99677 4.53155 2.82173 5.90006 3.01069V3.01069C6.64677 3.11379 7.40525 2.80431 7.88403 2.20117V2.20117Z" fill="white"/>
<g opacity="0.6">
<path d="M26.6372 13.8775L26.9799 4.1115H33.2239L33.1636 5.83244H29.0196L28.941 8.07106H32.945L32.8846 9.792H28.8806L28.7976 12.1565H32.9416L32.8812 13.8775H26.6372Z" fill="white"/>
<path d="M42.6057 13.8775H40.2117L39.272 11.9327L38.64 10.3936H38.514L37.76 11.9327L36.6557 13.8775H34.4577L37.379 8.8266L34.9825 4.1115L37.3765 4.1115L38.12 5.66454L38.779 7.23158L38.891 7.23158L39.674 5.66454L40.5685 4.1115H42.7665L40.038 8.85458L42.6057 13.8775Z" fill="white"/>
<path d="M49.2363 13.8775L48.7028 11.5269H46.0288L45.3443 13.8775H43.2163L46.205 4.1115H49.173L51.4763 13.8775H49.2363ZM47.6178 6.14025H47.5058L46.4242 9.83398H48.4402L47.6178 6.14025Z" fill="white"/>
<path d="M58.1475 9.52617L58.3553 6.79785H58.2293L56.233 11.8208L54.5893 6.79785H54.4633L54.4795 9.52617L54.3268 13.8775H52.5068L52.8495 4.1115H55.3275L56.4161 7.39948H56.5281L57.8475 4.1115H60.1575L59.8148 13.8775H57.9948L58.1475 9.52617Z" fill="white"/>
<path d="M61.8393 13.8775L62.1821 4.1115H65.9621C66.4381 4.1115 66.8601 4.18612 67.2282 4.33536C67.5966 4.47528 67.9021 4.68048 68.1446 4.95098C68.3965 5.22148 68.581 5.54795 68.6982 5.93038C68.8155 6.31281 68.8658 6.74188 68.8491 7.21759C68.8324 7.6933 68.752 8.12236 68.6079 8.5048C68.4638 8.88723 68.2563 9.21369 67.9855 9.48419C67.724 9.75469 67.404 9.96456 67.0254 10.1138C66.6472 10.2537 66.2201 10.3237 65.7441 10.3237H64.0781L63.9533 13.8775H61.8393ZM64.1375 8.63072H65.2715C65.7661 8.63072 66.1101 8.53744 66.3033 8.35089C66.5058 8.16434 66.6146 7.85653 66.6297 7.42746L66.6444 7.00772C66.6595 6.57865 66.5723 6.27084 66.3828 6.08429C66.2027 5.89773 65.8653 5.80446 65.3707 5.80446H64.2367L64.1375 8.63072Z" fill="white"/>
<path d="M70.8779 13.8775L71.2206 4.1115H73.3346L73.0523 12.1565L77.2523 12.1565L77.1919 13.8775L70.8779 13.8775Z" fill="white"/>
<path d="M79.5244 13.8775L79.8671 4.1115L86.1111 4.1115L86.0507 5.83244H81.9067L81.8282 8.07106H85.8322L85.7718 9.792H81.7678L81.6848 12.1565H85.8288L85.7684 13.8775H79.5244Z" fill="white"/>
<path d="M100.228 14.0454C98.9209 14.0454 97.9704 13.6023 97.3762 12.7162C96.7913 11.8301 96.5268 10.5895 96.5828 8.99449C96.6388 7.39948 96.9903 6.15891 97.6374 5.27279C98.2939 4.38666 99.2754 3.9436 100.582 3.9436C101.889 3.9436 102.835 4.38666 103.419 5.27279C104.014 6.15891 104.283 7.39948 104.227 8.99449C104.171 10.5895 103.815 11.8301 103.158 12.7162C102.511 13.6023 101.534 14.0454 100.228 14.0454ZM100.287 12.3524C100.884 12.3524 101.303 12.1332 101.542 11.6948C101.791 11.2471 101.93 10.6268 101.957 9.83398L102.017 8.14102C102.044 7.3575 101.949 6.74654 101.731 6.30815C101.523 5.86042 101.12 5.63656 100.523 5.63656C99.9253 5.63656 99.5022 5.86042 99.2531 6.30815C99.0137 6.74654 98.8803 7.3575 98.8528 8.14102L98.7929 9.84797C98.7654 10.6315 98.8558 11.2471 99.0641 11.6948C99.282 12.1332 99.6896 12.3524 100.287 12.3524Z" fill="white"/>
<path d="M105.968 13.8775L106.311 4.1115H112.793L112.732 5.83244H108.35L108.272 8.07106H112.192L112.131 9.792H108.211L108.068 13.8775L105.968 13.8775Z" fill="white"/>
<path d="M128.567 13.8775L128.034 11.5269H125.36L124.675 13.8775H122.547L125.536 4.1115H128.504L130.807 13.8775H128.567ZM126.949 6.14025H126.837L125.755 9.83398H127.771L126.949 6.14025Z" fill="white"/>
<path d="M134.428 13.8775H132.356L132.698 4.1115H136.478C136.954 4.1115 137.376 4.18612 137.744 4.33536C138.113 4.47528 138.418 4.68048 138.661 4.95098C138.913 5.22148 139.097 5.54795 139.214 5.93038C139.332 6.31281 139.382 6.74188 139.365 7.21759C139.341 7.90783 139.171 8.50013 138.855 8.99449C138.539 9.48886 138.103 9.81532 137.547 9.97389L139.328 13.8775L137.032 13.8775L135.521 10.2537H134.555L134.428 13.8775ZM135.816 8.63072C136.31 8.63072 136.654 8.53744 136.848 8.35089C137.05 8.16434 137.159 7.85653 137.174 7.42746L137.189 7.00772C137.204 6.57865 137.117 6.27084 136.927 6.08429C136.747 5.89773 136.41 5.80446 135.915 5.80446H134.711L134.612 8.63072H135.816Z" fill="white"/>
<path d="M145.638 5.83244L145.356 13.8775H143.256L143.538 5.83244H140.724L140.785 4.1115L148.513 4.1115L148.452 5.83244H145.638Z" fill="white"/>
<path d="M149.971 13.8775L150.025 12.3244H152.125L152.359 5.66454H150.259L150.313 4.1115H156.613L156.559 5.66454H154.459L154.225 12.3244H156.325L156.271 13.8775H149.971Z" fill="white"/>
<path d="M161.775 14.0454C160.954 14.0454 160.245 13.9101 159.648 13.6396C159.05 13.3691 158.573 13.0007 158.216 12.5343L159.481 11.1911C159.822 11.5829 160.2 11.8721 160.613 12.0586C161.036 12.2452 161.467 12.3384 161.905 12.3384C162.409 12.3384 162.796 12.2265 163.065 12.0026C163.334 11.7788 163.476 11.457 163.491 11.0372C163.503 10.6921 163.409 10.4309 163.21 10.2537C163.021 10.0765 162.689 9.95057 162.216 9.87595L161.2 9.70806C160.327 9.55881 159.704 9.23701 159.329 8.74265C158.955 8.23896 158.781 7.628 158.806 6.90978C158.839 5.96769 159.172 5.24014 159.806 4.72712C160.441 4.20478 161.313 3.9436 162.424 3.9436C163.18 3.9436 163.834 4.0602 164.386 4.29339C164.937 4.52658 165.379 4.84372 165.71 5.2448L164.473 6.57398C164.222 6.28483 163.922 6.06097 163.573 5.9024C163.224 5.7345 162.826 5.65055 162.378 5.65055C161.435 5.65055 160.95 6.03765 160.923 6.81184C160.911 7.14763 161.005 7.39948 161.205 7.56737C161.413 7.73527 161.754 7.86119 162.227 7.94514L163.243 8.12703C164.031 8.26694 164.632 8.56543 165.046 9.02248C165.459 9.47953 165.652 10.0952 165.625 10.8693C165.609 11.3264 165.514 11.7508 165.342 12.1426C165.17 12.525 164.92 12.8608 164.593 13.1499C164.266 13.4298 163.866 13.649 163.394 13.8075C162.931 13.9661 162.391 14.0454 161.775 14.0454Z" fill="white"/>
<path d="M172.082 5.83244L171.8 13.8775L169.7 13.8775L169.982 5.83244H167.168L167.228 4.1115H174.956L174.896 5.83244H172.082Z" fill="white"/>
<path d="M189.711 5.83244L189.429 13.8775H187.329L187.611 5.83244H184.797L184.858 4.1115H192.586L192.525 5.83244H189.711Z" fill="white"/>
<path d="M199.083 13.8775L198.55 11.5269H195.876L195.191 13.8775H193.063L196.052 4.1115H199.02L201.323 13.8775H199.083ZM197.465 6.14025H197.353L196.271 9.83398H198.287L197.465 6.14025Z" fill="white"/>
<path d="M205.871 9.80599L204.96 11.0232L204.86 13.8775H202.76L203.103 4.1115H205.203L205.059 8.19699H205.171L206.292 6.57398L208.101 4.1115H210.453L207.382 8.23896L210.25 13.8775H207.884L205.871 9.80599Z" fill="white"/>
<path d="M211.742 13.8775L212.085 4.1115H218.329L218.269 5.83244H214.125L214.046 8.07106H218.05L217.99 9.792H213.986L213.903 12.1565H218.047L217.986 13.8775H211.742Z" fill="white"/>
<path d="M223.631 14.0454C222.324 14.0454 221.374 13.6023 220.78 12.7162C220.195 11.8301 219.93 10.5895 219.986 8.99449C220.042 7.39948 220.394 6.15891 221.041 5.27279C221.697 4.38666 222.679 3.9436 223.986 3.9436C225.292 3.9436 226.238 4.38666 226.823 5.27279C227.417 6.15891 227.686 7.39948 227.63 8.99449C227.574 10.5895 227.218 11.8301 226.562 12.7162C225.915 13.6023 224.938 14.0454 223.631 14.0454ZM223.69 12.3524C224.288 12.3524 224.706 12.1332 224.946 11.6948C225.195 11.2471 225.333 10.6268 225.361 9.83398L225.42 8.14102C225.448 7.3575 225.353 6.74654 225.135 6.30815C224.926 5.86042 224.523 5.63656 223.926 5.63656C223.329 5.63656 222.906 5.86042 222.657 6.30815C222.417 6.74654 222.284 7.3575 222.256 8.14102L222.196 9.84797C222.169 10.6315 222.259 11.2471 222.467 11.6948C222.685 12.1332 223.093 12.3524 223.69 12.3524Z" fill="white"/>
<path d="M230.967 13.8775L228.72 4.1115H231.058L232.032 9.07844L232.507 11.8907H232.619L233.306 9.07844L234.642 4.1115H236.868L233.935 13.8775H230.967Z" fill="white"/>
<path d="M238.186 13.8775L238.529 4.1115L244.773 4.1115L244.712 5.83244L240.568 5.83244L240.49 8.07106L244.494 8.07106L244.433 9.792L240.429 9.792L240.346 12.1565H244.49L244.43 13.8775H238.186Z" fill="white"/>
<path d="M249.016 13.8775H246.944L247.287 4.1115H251.067C251.543 4.1115 251.965 4.18612 252.333 4.33536C252.702 4.47528 253.007 4.68048 253.25 4.95098C253.502 5.22148 253.686 5.54795 253.803 5.93038C253.921 6.31281 253.971 6.74188 253.954 7.21759C253.93 7.90783 253.76 8.50013 253.444 8.99449C253.128 9.48886 252.692 9.81532 252.135 9.97389L253.916 13.8775H251.62L250.11 10.2537H249.144L249.016 13.8775ZM250.405 8.63072C250.899 8.63072 251.243 8.53744 251.436 8.35089C251.639 8.16434 251.748 7.85653 251.763 7.42746L251.778 7.00772C251.793 6.57865 251.705 6.27084 251.516 6.08429C251.336 5.89773 250.998 5.80446 250.504 5.80446H249.3L249.201 8.63072H250.405Z" fill="white"/>
</g>
</svg>
