<svg width="24" height="24" viewBox="0 0 24 24" fill="none" xmlns="http://www.w3.org/2000/svg">
<path d="M17.0048 8.71411L18.4105 10.3857C18.5714 10.5734 18.7141 10.7279 18.7718 10.8157C19.1922 11.2385 19.4279 11.81 19.4276 12.4055C19.3881 13.108 18.9357 13.5865 18.5168 14.0982L17.5331 15.2671L17.02 15.8728C17.0016 15.8936 16.9897 15.9195 16.9858 15.947C16.982 15.9746 16.9863 16.0026 16.9983 16.0277C17.0102 16.0529 17.0293 16.074 17.0531 16.0884C17.0769 16.1028 17.1045 16.11 17.1323 16.109H22.2602C23.0435 16.109 24.0302 16.7752 23.9725 17.7866C23.9709 18.2463 23.7871 18.6867 23.4612 19.0118C23.1353 19.3368 22.6938 19.5202 22.2329 19.5217H14.2026C13.6743 19.5217 12.2534 19.5793 11.8557 18.3529C11.7711 18.0966 11.7596 17.8219 11.8223 17.5595C11.9379 17.1714 12.1208 16.8065 12.3627 16.4814C12.7665 15.8758 13.2037 15.2702 13.6348 14.6827C14.1904 13.9135 14.7612 13.1686 15.3229 12.3843C15.3428 12.3587 15.3536 12.3273 15.3536 12.295C15.3536 12.2626 15.3428 12.2312 15.3229 12.2056L13.2826 9.78305C13.2693 9.76551 13.2521 9.75125 13.2324 9.74145C13.2126 9.73164 13.1909 9.72654 13.1688 9.72654C13.1467 9.72654 13.125 9.73164 13.1052 9.74145C13.0855 9.75125 13.0682 9.76551 13.0549 9.78305C12.5085 10.5189 10.1161 13.7773 9.60601 14.4374C9.09595 15.0976 7.83904 15.1339 7.14378 14.4374L3.95291 11.2427C3.93254 11.2223 3.90652 11.2083 3.87823 11.2027C3.8499 11.1971 3.82054 11.2 3.79389 11.211C3.7672 11.222 3.7444 11.2407 3.7284 11.2647C3.7124 11.2886 3.7039 11.3168 3.70396 11.3456V17.4898C3.71146 17.9259 3.58203 18.3533 3.33375 18.7122C3.08549 19.0712 2.73085 19.3437 2.31953 19.4915C2.0567 19.5827 1.77584 19.61 1.50029 19.5709C1.22477 19.5319 0.962605 19.4278 0.735631 19.2671C0.508657 19.1066 0.323459 18.8941 0.19549 18.6477C0.0675517 18.4012 0.000516126 18.1278 0 17.8502V6.8033C0.0183073 6.40519 0.161912 6.02298 0.410441 5.71094C0.658971 5.3989 0.999766 5.17293 1.38443 5.06511C1.71439 4.97744 2.06171 4.97832 2.39121 5.06766C2.72071 5.15699 3.02067 5.33164 3.2607 5.57386L8.16693 10.4735C8.18162 10.4884 8.19938 10.4999 8.21903 10.5071C8.23864 10.5144 8.25965 10.5173 8.28051 10.5155C8.30136 10.5138 8.32158 10.5075 8.33974 10.4971C8.35789 10.4867 8.3735 10.4724 8.38552 10.4553L11.8709 5.64349C12.0319 5.44816 12.2339 5.29031 12.4626 5.18098C12.6912 5.07166 12.9411 5.01352 13.1946 5.0106H22.2602C22.5083 5.01103 22.7535 5.06425 22.9792 5.16676C23.2051 5.26929 23.4063 5.41872 23.5696 5.60505C23.7328 5.79138 23.8543 6.01035 23.9259 6.24729C23.9975 6.48422 24.0175 6.73367 23.9847 6.97893C23.9208 7.40442 23.7043 7.79238 23.3755 8.0708C23.0466 8.34922 22.6277 8.49926 22.1964 8.49306H17.1202C17.0947 8.49367 17.0698 8.50111 17.0481 8.51456C17.0265 8.52802 17.0089 8.54704 16.9971 8.5696C16.9853 8.59218 16.9798 8.6175 16.9812 8.64291C16.9825 8.66832 16.9907 8.69291 17.0048 8.71411Z" fill="#91493B"/>
</svg>
