<svg width="411" height="75" viewBox="0 0 411 75" fill="none" xmlns="http://www.w3.org/2000/svg">
<g clip-path="url(#clip0_2783_43082)">
<g clip-path="url(#clip1_2783_43082)">
<path d="M410.944 57.6626C410.775 57.3816 409.988 57.3254 409.82 57.6064C409.482 58.1122 409.089 57.8312 408.696 57.7188C408.583 57.6626 408.415 57.6064 408.302 57.6064C407.234 57.6064 406.11 57.6064 405.042 57.6626C404.93 57.6626 404.761 57.7188 404.593 57.6626C403.637 57.4378 402.682 56.9881 401.727 56.9881C400.715 56.9881 399.984 56.3137 399.085 56.2013C398.635 55.9765 398.13 55.7517 397.68 55.4707C397.399 55.3021 397.174 55.0211 396.893 54.8525C396.612 54.6277 396.275 54.4029 395.994 54.1219C395.544 53.6161 395.095 53.0541 394.645 52.492C394.139 51.8738 393.634 51.3118 393.128 50.7498C392.959 50.525 392.847 50.244 392.678 50.0192C392.566 49.8506 392.397 49.7382 392.285 49.5696C392.004 49.12 391.667 48.6704 391.386 48.2207C391.048 47.7711 390.711 47.2653 390.374 46.8157C389.924 46.1413 389.531 45.4669 389.081 44.8487C388.519 44.0619 387.732 43.3874 387.283 42.5444C386.889 41.9262 386.384 41.4204 385.878 40.9708C385.203 40.4088 384.866 39.903 385.147 39.5095C385.372 39.1723 385.541 38.8351 385.709 38.5541C386.608 37.2615 387.002 35.6879 387.957 34.4514C388.632 33.6084 389.25 32.7092 389.924 31.8662C390.374 31.3604 390.88 30.9107 391.048 30.1801C391.104 29.9553 391.273 29.7867 391.442 29.6181C391.891 29.0561 392.341 28.4941 392.734 27.9321C393.072 27.4825 393.24 26.9205 393.521 26.4708C393.971 25.684 394.533 24.9534 395.039 24.1666C395.32 23.7732 395.544 23.2674 395.882 22.9302C396.387 22.4244 397.118 22.1995 397.568 21.5251C398.13 20.6821 398.973 20.0639 399.535 19.2209C400.041 18.5465 400.603 17.872 401.221 17.31C401.502 17.029 401.389 16.8042 401.165 16.6918C400.996 16.5794 400.715 16.6918 400.49 16.6918V16.8042C400.378 16.8042 400.321 16.8604 400.209 16.8604C399.141 16.5232 398.073 16.6918 397.006 16.748C395.825 16.8042 394.701 16.9728 393.521 17.1414C393.24 17.1976 392.959 17.6472 393.072 17.9282C393.296 18.6027 393.634 19.1647 393.577 19.8953C393.577 20.0077 393.69 20.1201 393.746 20.2325C394.083 20.5135 394.083 20.9631 393.915 21.3003C393.69 21.7499 393.465 22.2557 393.128 22.593C392.453 23.2112 392.004 24.0542 391.442 24.7848C390.992 25.403 390.655 26.1898 390.093 26.7519C389.418 27.4263 388.8 28.1569 388.238 28.9437C387.451 30.1239 386.721 31.3042 385.934 32.4844C385.484 33.1026 385.035 33.7208 384.585 34.339C384.248 34.7886 383.911 35.2382 383.574 35.7441C383.293 36.0813 383.068 36.4747 382.787 36.8119C382.225 37.3739 382.168 37.3739 381.55 36.8681C380.988 36.3623 380.258 35.9127 379.864 35.182C379.808 35.0696 379.639 35.0134 379.527 34.9572C379.021 34.6762 378.403 34.5638 378.01 34.1704C377.56 33.7208 377.11 33.3836 376.492 33.2712C376.155 33.215 375.874 33.0464 375.537 32.934C375.031 32.7654 374.525 32.653 374.019 32.4282C373.963 32.4282 373.851 32.2596 373.851 32.2034C373.794 31.4728 373.794 30.7421 373.738 30.0115C373.738 29.8991 373.738 29.7867 373.682 29.7305C373.232 29.2247 373.457 28.6627 373.513 28.1007C373.57 26.8081 373.682 25.5154 373.738 24.2228C374.019 23.3236 374.075 22.4244 374.019 21.4689C374.019 21.3003 374.132 21.0755 374.244 21.0193C374.694 20.6821 375.2 20.4573 375.537 20.1201C375.874 19.8391 376.155 19.5019 376.436 19.1647C376.942 18.6589 377.448 18.0407 377.504 17.2538C377.504 17.0852 377.504 16.8042 377.448 16.8042C377.11 16.748 376.717 16.748 376.324 16.748C375.818 16.748 375.312 16.8042 374.806 16.8604C374.469 16.8604 374.188 16.8042 373.851 16.8042C372.951 16.8042 372.052 16.8604 371.153 16.8604C370.085 16.8604 368.961 16.748 367.893 16.6918C367.05 16.6918 366.207 16.6918 365.364 16.6918C364.971 16.6918 364.521 16.6356 364.128 16.6356C363.959 16.6356 363.678 16.8604 363.678 16.9166C363.734 17.1414 363.847 17.4786 364.015 17.6472C364.802 18.2093 365.701 18.6027 366.376 19.2209C366.994 19.7267 367.612 20.1201 368.343 20.4011C368.68 20.5135 369.017 20.6821 369.017 21.1879C369.074 22.0871 369.186 22.9302 369.186 23.8294C369.186 24.2228 368.961 24.6724 368.961 25.0658C368.961 26.1898 368.961 27.3139 368.961 28.4379C368.961 28.7189 369.074 28.9999 369.074 29.2809C369.074 29.7867 369.017 30.2363 369.017 30.7421C369.017 31.3604 368.961 32.0348 369.017 32.653C369.017 32.9902 369.242 33.3274 369.298 33.7208C369.355 34.2266 369.298 34.7324 369.298 35.2382C369.355 35.8003 369.579 36.4185 369.242 36.9805C369.186 37.0367 369.242 37.2053 369.242 37.3177C369.298 37.5987 369.411 37.8797 369.467 38.1607C369.523 39.0599 369.579 39.9592 369.579 40.8584C369.579 41.8138 369.636 42.713 369.636 43.6684C369.636 43.7246 369.579 43.7808 369.523 43.7808C369.467 43.837 369.298 43.837 369.298 43.8932C369.298 44.1181 369.355 44.3429 369.355 44.5677C369.411 45.3545 369.411 46.0851 369.411 46.8719C369.411 47.1529 369.298 47.4901 369.411 47.6587C369.692 47.9959 369.636 48.2769 369.636 48.6142C369.636 49.7944 369.748 50.9746 369.86 52.1548C369.917 52.8293 369.917 53.5599 370.141 54.1781C370.31 54.7963 370.029 55.1335 369.692 55.4707C369.017 56.2575 368.287 56.9881 367.612 57.7188C367.388 57.9998 367.05 58.2246 366.769 58.3932C366.32 58.5618 366.151 58.9552 366.039 59.3486C365.926 59.6296 366.151 59.7982 366.432 59.7982C366.826 59.7982 367.163 59.742 367.556 59.742C367.781 59.742 368.006 59.8544 368.231 59.8544C368.624 59.7982 369.017 59.6858 369.411 59.6858C370.141 59.6858 370.872 59.742 371.603 59.7982C372.558 59.8544 373.57 59.9106 374.525 59.9668C375.649 60.023 376.773 60.1354 377.897 60.1916C378.01 60.1916 378.234 60.023 378.234 59.9106C378.234 59.5734 377.672 59.0114 377.279 58.899C377.11 58.8428 376.942 58.7866 376.829 58.618C376.548 58.337 376.324 57.9436 375.986 57.775C375.649 57.5502 375.087 57.7188 374.975 57.1568L374.862 57.1005C374.525 57.213 374.525 56.9881 374.525 56.7633C374.525 56.4261 374.525 56.1451 374.525 55.8079C374.525 54.9649 374.637 54.1781 374.581 53.3351C374.525 51.93 374.3 50.525 374.244 49.1762C374.188 47.8835 374.188 46.5909 374.132 45.2983C374.075 42.9378 373.963 40.5774 373.907 38.2731C373.907 37.5987 374.132 37.4301 374.694 37.8235C375.593 38.4979 376.605 38.8913 377.616 39.3409C377.953 39.5095 378.347 39.6219 378.684 39.8468C379.134 40.1278 379.527 40.465 379.92 40.8022C380.37 41.2518 380.876 41.7014 381.325 42.151C381.55 42.3758 381.775 42.6568 382 42.9378C382.506 43.556 383.011 44.2305 383.574 44.9049C383.686 45.0173 383.742 45.1297 383.855 45.1859C383.967 45.2983 384.079 45.3545 384.192 45.4669C384.079 45.5231 383.911 45.5793 383.798 45.6355C383.911 45.7479 384.023 45.9165 384.136 45.9727C384.248 46.0851 384.473 46.0289 384.585 46.1413C385.147 46.8719 385.709 47.6587 386.271 48.4456C386.552 48.839 386.721 49.2324 387.002 49.5696C387.339 49.963 387.789 50.3564 388.126 50.7498C388.407 51.0308 388.575 51.4242 388.8 51.7052C389.531 52.5482 391.161 54.3467 391.273 54.5153C391.442 54.9087 393.015 56.7633 393.577 57.0443C393.634 57.1006 393.69 57.213 393.802 57.2692C394.139 57.5502 394.477 57.8312 394.87 58.056C395.432 58.337 395.994 58.4494 396.556 58.618C396.837 58.7304 397.174 58.7866 397.399 59.1238C397.511 59.3486 398.017 59.2362 398.354 59.3486C398.804 59.4048 399.197 59.461 399.591 59.6296C399.872 59.742 400.097 59.9106 400.378 59.6296C400.49 59.5734 400.659 59.5172 400.771 59.5172C401.502 59.6858 402.176 59.8544 402.907 60.023C403.356 60.0792 403.806 60.0792 404.256 60.1354C404.705 60.1916 405.155 60.3602 405.548 60.304C406.672 60.1916 407.796 59.9668 408.864 59.742C409.201 59.6858 409.82 60.023 409.876 59.2924C409.876 59.2924 409.988 59.2924 409.988 59.2362C410.157 59.1238 410.325 59.0114 410.438 58.899C410.606 58.6742 410.887 58.5056 411 58.2808C411 58.1684 411 57.8312 410.944 57.6626Z" fill="#161612"/>
<path d="M362.386 54.9649C362.442 54.1219 362.554 53.2789 362.386 52.4359C362.329 52.0986 362.217 51.8176 362.273 51.4804C362.329 50.8622 362.498 50.244 362.498 49.682C362.498 49.12 362.048 48.9514 361.43 49.0076C360.587 49.0638 360.081 49.5696 360.194 50.4126C360.194 50.525 360.25 50.6374 360.194 50.7498C359.857 51.4804 359.576 52.2673 359.238 52.9979C358.845 53.7847 358.452 54.5715 358.058 55.3583C358.002 55.5269 357.89 55.6955 357.721 55.7517C357.215 55.9203 356.653 56.0327 356.147 56.1451C355.866 56.2013 355.585 56.1451 355.304 56.2013C354.405 56.2013 353.506 56.2575 352.607 56.2575C351.483 56.2013 350.359 56.0889 349.235 56.0327C348.392 55.9765 347.605 55.8641 346.762 55.8641C345.525 55.8641 344.289 55.9765 343.052 55.9765C342.884 55.9765 342.659 55.7517 342.603 55.5831C342.547 55.3583 342.715 55.0773 342.715 54.7963C342.659 54.2343 342.49 53.6723 342.434 53.1665C342.322 51.649 342.209 50.0754 342.097 48.558C342.041 47.7712 341.985 46.9281 341.985 46.1413C341.928 45.0735 341.928 43.9495 341.816 42.8816C341.647 41.3642 341.928 39.7906 341.591 38.2731C341.366 37.0367 341.704 35.8003 341.423 34.5077C341.31 33.8894 341.31 33.2712 341.254 32.653C341.198 31.6976 341.31 30.7422 340.973 29.8991C340.58 28.8875 340.917 27.8759 340.692 26.8643C340.636 26.5271 340.636 26.2461 340.58 25.9089C340.523 25.3468 340.411 24.7848 340.355 24.2228C340.298 23.5484 340.299 22.874 340.299 22.1996C340.299 21.1317 340.411 20.1763 341.647 19.7829C341.928 19.6705 342.153 19.5019 342.378 19.3333C342.771 19.0523 343.109 18.7151 343.502 18.4341C343.839 18.2093 344.289 18.0969 344.626 17.8159C344.738 17.7035 344.738 17.3663 344.682 17.1977C344.57 17.0291 344.289 16.9167 344.064 16.8605C343.446 16.8042 342.828 16.8042 342.209 16.8042C340.917 16.8042 339.568 16.8042 338.275 16.8042C337.601 16.8042 336.926 16.8042 336.252 16.8042C335.128 16.8042 334.06 16.748 332.936 16.6918C331.925 16.6356 330.857 16.5232 329.845 16.467C329.733 16.467 329.508 16.5794 329.452 16.6918C329.452 16.8042 329.508 17.0291 329.62 17.1415C329.957 17.5349 330.351 17.8159 330.688 18.2093C331.194 18.7713 331.868 18.9961 332.543 19.2209C333.611 19.5019 334.229 20.0077 334.341 20.9069C334.566 22.4806 334.735 24.1104 334.903 25.6841C334.903 25.7965 334.959 25.9651 334.959 26.0775C335.072 26.5271 335.24 27.0329 335.297 27.4825C335.409 28.9437 335.465 30.4612 335.578 31.9224C335.634 33.1588 335.746 34.3952 335.802 35.6317C335.971 37.6549 336.14 39.6782 336.308 41.7576C336.421 43.1626 336.533 44.5677 336.589 45.9727C336.589 46.2537 336.477 46.5347 336.477 46.7595C336.589 48.1084 336.702 49.5134 336.814 50.8622C336.87 51.4242 336.814 51.9862 336.814 52.4921C336.758 53.3351 336.645 54.1781 336.814 55.0211C336.87 55.3021 336.702 55.6955 336.533 55.8079C335.859 56.3699 335.072 56.7634 334.51 57.494C334.229 57.8312 334.004 58.2246 333.835 58.618C333.835 58.6742 334.004 58.899 334.116 58.899C334.454 58.8428 334.791 58.6742 335.128 58.618C336.027 58.5056 336.926 58.3932 337.826 58.4494C339.118 58.4494 340.467 58.6742 341.76 58.6742C343.165 58.7304 344.57 58.6742 345.919 58.618C346.593 58.618 347.324 58.5618 347.998 58.5056C348.335 58.5056 348.729 58.3932 349.066 58.3932C350.134 58.3932 351.145 58.4494 352.213 58.3932C353 58.3932 353.787 58.2246 354.574 58.2246C355.417 58.1684 356.26 58.2246 357.103 58.2246C357.215 58.2246 357.384 58.2246 357.496 58.2808C358.17 59.0114 359.07 58.618 359.857 58.6742C360.475 58.7304 361.149 58.4494 361.824 58.2808C362.667 58.056 362.723 57.9436 362.554 57.1568C362.217 56.4261 362.273 55.6955 362.386 54.9649ZM341.76 17.9845H341.704H341.76ZM361.374 50.6374C361.374 50.5812 361.318 50.5812 361.318 50.525C361.318 50.4688 361.318 50.4688 361.374 50.4126C361.374 50.4688 361.43 50.4688 361.43 50.525C361.43 50.5812 361.374 50.5812 361.374 50.6374Z" fill="#161612"/>
<path d="M324.843 36.7557C324.562 35.7441 324.562 34.7886 324.618 33.7208C324.618 33.2712 324.674 32.8778 324.618 32.4844C324.562 31.8662 324.394 31.3042 324.281 30.6859C324.169 30.2363 324.056 29.7305 324 29.2809C323.831 28.6065 323.663 27.9321 323.438 27.2577C323.382 27.0891 323.382 26.9205 323.326 26.6957C323.269 26.4709 323.101 26.1898 323.045 25.965C322.932 25.5154 322.932 25.122 322.82 24.6724C322.707 24.3352 322.483 24.0542 322.258 23.717C321.977 22.8178 321.696 21.9186 321.021 21.1879C320.459 20.5697 319.954 19.9515 319.392 19.3895C319.054 19.0523 318.83 18.5465 318.492 18.3217C317.818 17.9283 317.256 17.31 316.357 17.4224C316.301 17.4224 316.244 17.3662 316.188 17.31C315.963 17.2538 315.739 17.1414 315.514 17.0852C315.064 17.029 314.558 17.0852 314.165 16.8604C313.547 16.5232 312.928 16.4108 312.31 16.4108C311.917 16.4108 311.355 16.5794 311.074 16.4108C310.399 15.8488 309.613 16.2422 308.882 16.0736C307.814 15.8488 306.578 16.1298 305.454 16.1298C304.217 16.1298 302.981 16.0174 301.744 16.1298C300.62 16.186 299.496 16.5232 298.372 16.6918C297.08 16.9166 295.956 17.4787 294.719 17.8721C293.539 18.2655 292.527 18.8837 291.572 19.5581C290.673 20.2325 289.998 21.2441 289.212 22.0872C288.987 22.3682 288.762 22.6492 288.537 22.9302C288.369 23.155 288.144 23.3798 287.975 23.6608C287.413 24.56 286.851 25.4592 286.289 26.4147C286.177 26.6395 286.008 26.8081 285.896 27.0329C285.671 27.6511 285.502 28.2693 285.334 28.8875C285.053 30.0677 284.659 31.248 284.547 32.4844C284.322 34.2828 284.378 36.0813 284.21 37.8797C284.097 39.0037 284.097 40.0716 284.266 41.1394C284.322 41.4766 284.659 41.7576 284.772 42.151C284.997 43.0502 285.109 43.9495 285.334 44.7925C285.502 45.4669 285.783 46.1975 286.177 46.8157C286.683 47.7149 287.188 48.6142 287.413 49.6258C287.75 51.1432 288.593 52.4358 289.661 53.5599C289.942 53.8409 290.223 54.1781 290.617 54.3467C291.684 54.8525 292.752 55.3021 293.764 55.7517C294.326 55.9765 294.888 56.2013 295.45 56.4261C296.012 56.5947 296.574 56.7633 297.136 56.8757C297.81 57.0443 298.485 57.2691 299.159 57.4378C299.946 57.6064 300.733 57.6626 301.52 57.775C302.756 57.9436 304.049 58.1122 305.285 58.2246C306.128 58.2808 306.971 58.2246 307.814 58.2246C308.151 58.2246 308.545 58.337 308.882 58.337C309.725 58.2808 310.568 58.2246 311.411 58.1122C311.973 57.9998 312.479 57.8312 312.985 57.6064C313.209 57.5502 313.378 57.3254 313.603 57.213C314.165 56.9319 314.727 56.7633 315.233 56.4823C315.739 56.2013 316.244 55.9203 316.75 55.5831C317.144 55.3021 317.593 55.0773 317.93 54.7401C318.605 54.0095 319.167 53.2227 319.841 52.492C320.909 51.4242 321.864 50.3002 322.37 48.839C322.707 47.9397 323.382 47.3215 323.494 46.3099C323.607 45.4107 324 44.5677 324.169 43.6684C324.337 42.8254 324.394 41.9262 324.506 41.0832C324.562 40.465 324.618 39.7906 324.618 39.1723C324.618 38.7227 324.618 38.2731 324.618 37.8797C324.843 37.5425 324.956 37.1491 324.843 36.7557ZM314.727 53.1665C314.39 53.4475 313.94 53.5599 313.547 53.7847C313.041 54.0095 312.535 54.2343 311.973 54.4029C311.804 54.4591 311.58 54.3467 311.411 54.4029C309.669 54.8525 307.87 54.5715 306.128 54.7963C304.555 54.9649 303.037 54.9087 301.463 54.8525C300.845 54.8525 300.227 54.5715 299.553 54.4591C299.215 54.3467 298.822 54.2905 298.485 54.1781C297.867 53.9533 297.248 53.6723 296.63 53.3351C295.843 52.8855 295 52.4358 294.27 51.8738C293.82 51.5366 293.595 51.0308 293.202 50.5812C293.089 50.4126 292.977 50.3002 292.865 50.1316C292.246 49.5696 291.909 48.839 291.684 48.1083V48.0521C291.066 46.8157 291.235 45.4107 291.066 44.0619C290.954 43.0502 290.617 42.0386 290.448 40.9708C290.392 40.6336 290.448 40.2964 290.448 39.9592C290.448 38.5541 290.392 37.1491 290.392 35.7441C290.392 34.6762 290.392 33.6084 290.448 32.4844C290.448 31.4728 290.841 30.5735 291.122 29.6181C291.403 28.7751 291.797 27.9883 291.909 27.1453C292.022 26.3023 292.303 25.5716 292.64 24.841C292.921 24.1666 293.427 23.6046 293.876 23.0426C294.326 22.4806 294.832 21.9186 295.281 21.3565C295.45 21.1879 295.675 20.9631 295.843 20.9069C296.911 20.5697 297.979 20.2325 299.103 20.0077C300.115 19.7829 301.182 19.6143 302.194 19.5581C302.644 19.5019 303.093 19.8391 303.543 19.9515C303.655 20.0077 303.711 20.0639 303.824 20.0639C304.611 20.0639 305.398 20.1201 306.184 20.0639C307.084 20.0077 307.983 19.8391 308.882 19.7267C309.107 19.6705 309.332 19.7267 309.5 19.7829C310.175 19.8953 310.905 20.0077 311.58 20.1201C312.029 20.2325 312.479 20.3449 312.928 20.5135C313.49 20.7383 314.109 20.9069 314.671 21.1879C315.289 21.5251 315.57 22.1996 315.851 22.8178C316.076 23.3236 316.357 23.8294 316.638 24.3352C316.863 24.7286 317.087 25.122 317.2 25.5716C317.425 26.6957 317.537 27.8759 317.706 28.9999C317.649 28.9999 317.593 28.9999 317.537 28.9999C317.706 30.4049 317.874 31.81 317.93 33.215C317.987 34.6762 317.874 36.0813 317.93 37.5425C317.987 38.8351 318.211 40.184 318.268 41.4766C318.268 42.4882 318.155 43.556 317.987 44.5677C317.874 45.4107 317.593 46.1975 317.537 47.0405C317.425 48.3894 316.863 49.4572 316.357 50.6374C316.076 51.7052 315.458 52.492 314.727 53.1665ZM304.498 19.3895C304.554 19.3895 304.555 19.3895 304.555 19.4457C304.555 19.4457 304.555 19.4457 304.555 19.5019C304.555 19.3895 304.554 19.3895 304.498 19.3895Z" fill="#161612"/>
<path d="M369.748 50.1316C369.748 50.1316 369.692 50.0754 369.636 50.0192C369.58 50.0754 369.58 50.1316 369.58 50.1878C369.58 50.1878 369.636 50.244 369.692 50.3002C369.692 50.244 369.748 50.1878 369.748 50.1316Z" fill="#161612"/>
<path d="M369.355 34.62C369.355 34.62 369.355 34.6762 369.298 34.6762H369.355C369.355 34.6762 369.355 34.6762 369.355 34.62Z" fill="#161612"/>
<path d="M278.308 18.6589C278.421 18.153 277.859 18.2654 277.69 18.3778C277.128 18.6589 276.847 18.3778 276.454 18.0406C276.173 17.8158 275.779 17.7034 275.386 17.7034C274.936 17.7034 274.487 17.8158 274.037 17.8158C273.588 17.8158 273.194 17.591 272.801 17.591C272.52 17.5348 272.239 17.7034 271.902 17.6472C271.283 17.591 270.609 17.4224 269.991 17.3662C269.316 17.2538 268.586 17.1414 267.911 17.1414C267.237 17.1414 266.619 17.2538 265.944 17.2538C264.876 17.2538 263.809 17.1414 262.684 17.1414C262.01 17.1414 261.392 16.8042 260.661 16.9166C259.874 17.029 259.088 16.9166 258.245 16.9728C257.683 16.9728 257.121 17.029 256.559 17.0852C255.828 17.1414 255.041 17.2538 254.311 17.2538C253.186 17.2538 252.062 17.1414 250.938 17.1414C250.657 17.1414 250.376 17.1976 250.095 17.31C249.983 17.3662 249.871 17.591 249.871 17.7596C249.871 17.8158 250.095 17.9282 250.208 17.9844C250.433 18.0968 250.657 18.153 250.826 18.2654C251.894 18.9399 252.905 19.7267 254.029 20.3449C254.198 20.4573 254.367 20.5697 254.423 20.7383C254.704 21.0193 254.816 21.4127 254.985 21.7499C255.322 22.2557 255.266 22.7615 255.266 23.3798C255.266 23.998 255.266 24.6162 255.266 25.2344C255.322 25.403 255.378 25.5716 255.435 25.7964C255.378 25.965 255.322 26.1336 255.266 26.3022C255.266 26.527 255.21 26.808 255.21 27.0328C255.266 27.4825 255.378 27.9321 255.378 28.3817C255.435 29.7305 255.435 31.1355 255.435 32.5406C255.435 34.1704 255.435 35.8003 255.491 37.3739C255.491 38.4417 255.547 39.5095 255.716 40.5212C255.828 41.3642 255.828 42.2634 255.884 43.1064C255.884 44.0056 255.997 44.9049 256.053 45.8041C256.109 46.9843 256.221 48.1645 256.278 49.3448C256.278 49.963 256.221 50.5812 256.278 51.1432C256.334 52.7168 256.502 54.2905 256.559 55.9203C256.559 56.0327 256.502 56.1451 256.446 56.2013C255.716 56.6509 254.985 56.9881 254.311 57.4378C253.692 57.8312 253.13 58.2808 252.568 58.7304C252.343 58.9552 252.456 59.3486 252.737 59.4048C253.411 59.5172 254.142 59.6296 254.816 59.6296C256.559 59.6296 258.301 59.5172 260.099 59.5172C260.942 59.5172 261.841 59.5734 262.684 59.5734C264.146 59.5734 265.607 59.5172 267.068 59.461C267.181 59.461 267.349 59.4048 267.462 59.2924C267.574 59.2362 267.63 59.0676 267.686 58.9552C267.574 58.899 267.462 58.8428 267.349 58.8428C267.124 58.7866 266.787 58.8428 266.675 58.7304C265.776 57.8312 264.708 57.2129 263.64 56.5947C262.966 56.2013 262.235 55.8641 262.066 55.0211C262.01 54.5153 262.066 53.9533 262.122 53.4475C262.179 51.8176 262.235 50.1878 262.235 48.6141C262.235 48.2207 262.235 47.8273 262.235 47.4339C262.179 46.5909 262.066 45.7479 262.066 44.9049C262.01 43.4998 262.01 42.0948 262.01 40.6898C262.01 40.5774 262.066 40.4088 262.122 40.4088C262.966 40.2964 263.809 40.2402 264.652 40.184C265.045 40.184 265.382 40.3526 265.776 40.2964C266.787 40.2402 267.743 40.184 268.698 40.1278C269.26 40.1278 269.934 40.2402 270.44 40.0716C271.059 39.9029 271.508 40.0153 271.958 40.2402C272.576 40.5212 272.969 41.0832 272.913 41.6452C272.857 42.2072 272.857 42.2072 273.419 42.0386C273.475 42.0386 273.588 42.0386 273.644 42.0386C274.262 42.0386 274.599 41.7576 274.655 41.1394C274.712 40.465 274.712 39.7905 274.768 39.1723C274.768 38.2169 274.655 37.2615 275.049 36.3623C275.105 36.3061 274.824 36.0813 274.712 35.9689C274.655 35.9127 274.487 35.9127 274.374 35.9127C274.262 35.9127 274.093 35.8003 273.981 35.8565C273.475 36.2499 272.969 36.5871 272.52 37.0929C271.902 37.8235 271.171 37.8797 270.328 37.6549C269.991 37.5987 269.71 37.4863 269.372 37.4863C267.967 37.4863 266.506 37.4863 265.045 37.4301C264.989 37.4301 264.933 37.4301 264.933 37.4301C264.146 37.2615 263.415 37.0929 262.628 36.9805C262.572 36.9805 262.516 36.9243 262.516 36.9805C261.898 37.3177 261.898 36.8119 261.898 36.4747C261.785 35.3506 261.785 34.2828 261.729 33.1588C261.673 32.5406 261.617 31.9224 261.673 31.3041C261.729 30.6297 261.785 30.5735 261.392 30.0115C261.392 30.0115 261.336 29.9553 261.392 29.8991C261.729 29.5619 261.392 29.2809 261.392 28.9999C261.336 28.2131 261.56 27.4263 261.279 26.6394V26.5832C261.223 25.8526 261.167 25.0658 261.055 24.3352C260.942 23.8294 260.774 23.3798 260.605 22.9302C260.549 22.7053 260.493 22.5367 260.436 22.3119C260.38 21.7499 260.38 21.1879 260.436 20.6259C260.436 20.4011 260.717 20.0639 260.774 20.0639C261.729 20.2887 262.685 19.9515 263.64 19.8953C264.314 19.8391 264.933 19.6705 265.607 19.6705C266.9 19.6705 268.248 19.6705 269.541 19.7267C270.159 19.7267 270.834 19.8391 271.452 19.9515C272.126 20.0639 272.745 20.2325 273.419 20.4011C274.15 20.6259 274.936 20.8507 275.386 21.5251C275.948 22.3681 276.285 23.3236 276.735 24.2228C276.903 24.56 277.072 24.8972 277.297 25.2344C277.465 25.4592 277.634 25.4592 277.746 25.1782C277.803 24.8972 277.859 24.6162 277.915 24.3352C278.027 23.6046 278.252 22.874 278.308 22.0871C278.477 20.7945 278.084 19.7267 278.308 18.6589Z" fill="#161612"/>
<path d="M243.913 33.7771C243.969 33.1026 243.576 32.5968 243.351 32.0348C242.902 30.7984 242.564 29.562 242.227 28.3255C242.227 28.2131 242.171 28.1007 242.115 28.0445C241.665 27.2577 241.216 26.4709 240.766 25.6841C240.71 25.6279 240.71 25.5155 240.654 25.4031C239.979 24.6163 239.305 23.7732 238.574 23.0426C237.956 22.3682 237.394 21.5814 236.551 21.1318C236.326 21.0194 236.101 20.8508 235.877 20.6822C235.033 20.1763 234.359 19.3895 233.404 19.1085C232.898 18.9399 232.504 18.6027 231.999 18.4341C231.605 18.3217 231.324 18.2093 231.099 17.8721C231.099 17.8159 230.987 17.8159 230.875 17.8159C229.863 17.9283 228.964 17.5349 228.008 17.3101C226.603 16.9729 225.142 16.9167 223.681 16.9167C222.894 16.9167 222.107 16.8605 221.32 16.8605C220.253 16.8605 219.185 16.9729 218.117 17.0291C217.218 17.0853 216.318 17.0853 215.475 17.1415C214.689 17.1977 213.958 17.2539 213.171 17.3101C212.553 17.3101 211.935 17.3101 211.373 17.2539C210.979 17.2539 210.642 17.1977 210.249 17.1977C209.406 17.1977 208.507 17.3101 207.72 17.3101C207.495 17.3101 207.383 17.2539 207.214 17.3101C206.933 17.3663 206.539 17.4225 206.371 17.5911C206.09 17.9283 206.258 18.3779 206.596 18.7151C206.764 18.8837 206.877 19.1085 207.045 19.3333C207.663 20.0639 208.282 20.7946 208.9 21.5252C209.069 21.6938 209.237 21.9186 209.237 22.1434C209.35 24.0542 209.462 25.9651 209.574 27.8759C209.631 28.8313 209.574 29.7306 209.574 30.686C209.687 32.8216 209.855 35.0135 209.968 37.1491C210.024 37.9922 209.968 38.8352 210.024 39.6782C210.024 40.2402 210.08 40.8022 210.136 41.308C210.193 41.7576 210.249 42.2635 210.305 42.7693C210.305 43.2189 210.249 43.6685 210.249 44.1181C210.305 44.6801 210.417 45.1859 210.474 45.7479C210.586 47.7712 210.361 49.7382 210.642 51.7615C210.755 52.7731 210.698 53.7847 210.698 54.7963C210.698 55.0211 210.923 55.4145 210.361 55.4708C210.024 55.527 209.799 55.9766 209.462 56.2014C209.181 56.4824 208.9 56.7072 208.619 56.9882C208.338 57.2692 208.057 57.6064 207.776 57.8874C207.607 57.9998 207.382 58.056 207.158 58.1684C206.989 58.2246 206.764 58.2808 206.708 58.3932C206.652 58.5618 206.652 58.899 206.764 59.0114C207.045 59.4048 207.495 59.3486 207.888 59.18C208.844 58.6742 209.912 58.9552 210.867 58.5618C210.979 58.5056 211.148 58.5618 211.26 58.5618C211.71 58.618 212.16 58.6742 212.609 58.7304C213.452 58.7866 214.295 58.8428 215.138 58.7866C215.869 58.7866 216.599 58.7304 217.33 58.618C218.117 58.5056 218.96 58.7866 219.747 58.2808C219.803 58.2808 219.859 58.2808 219.915 58.2808C220.477 58.337 221.096 58.4494 221.714 58.4494C222.669 58.4494 223.568 58.337 224.468 58.1684C225.086 58.056 225.76 58.4494 226.266 57.8312C226.266 57.8312 226.322 57.8874 226.378 57.8874C226.997 57.775 227.615 57.6626 228.177 57.4378C228.57 57.3254 228.908 56.9882 229.301 56.8196C229.751 56.651 230.256 56.5948 230.706 56.4262C231.605 56.0328 232.448 55.4708 233.347 55.0773C234.247 54.6839 235.09 54.1219 235.877 53.5037C236.214 53.2227 236.495 52.8855 236.944 52.8855C237.057 52.8855 237.113 52.7731 237.225 52.7169C237.787 52.3235 238.068 51.6491 238.799 51.3681C239.305 51.1433 239.811 50.5812 240.035 50.0754C240.429 49.2324 241.497 48.839 241.553 47.8274C241.553 47.7712 241.609 47.715 241.665 47.715C242.789 47.0406 243.07 45.8603 243.576 44.7363C243.688 44.5115 243.632 44.1743 243.688 43.8933C243.857 43.3313 244.194 42.7693 244.25 42.151C244.419 40.0154 244.531 37.8236 244.531 35.6879C244.531 35.0697 244.531 34.3953 244.026 33.8895C243.969 33.9457 243.913 33.8333 243.913 33.7771ZM216.262 55.1335C216.262 53.6161 216.318 52.0987 216.262 50.5812C216.206 49.5134 216.037 48.5018 215.981 47.434C215.925 46.591 215.981 45.7479 216.037 44.9049C216.037 44.1743 216.037 43.3875 216.037 42.6569C216.037 42.3759 216.206 42.0948 216.206 41.8138C216.206 41.3642 216.037 40.8584 216.037 40.4088C215.981 39.5096 215.925 38.6104 215.925 37.6549C215.925 35.4631 215.925 33.2712 215.925 31.0794C215.925 29.562 215.981 28.0445 215.981 26.5271C215.981 24.8973 215.981 23.2674 215.981 21.6376C215.981 21.3566 215.925 21.1318 215.869 20.8508C215.756 20.345 215.925 20.1763 216.375 20.1763C217.499 20.1201 218.567 20.0077 219.634 20.0639C221.039 20.0639 222.444 20.1763 223.849 20.2888C224.58 20.345 225.254 20.2888 225.985 20.4012C226.884 20.4574 227.784 20.5136 228.627 20.907C229.413 21.2442 230.369 21.3566 231.099 21.75C231.886 22.1434 232.561 22.8178 233.291 23.2674C234.359 23.9418 234.977 25.0659 235.595 26.0775C236.214 27.0891 236.663 28.1569 237.225 29.2248C237.394 29.5058 237.506 29.843 237.619 30.1802C238.181 31.7538 238.237 33.3274 238.181 34.9573C238.125 36.3623 238.012 37.7673 237.787 39.1162C237.619 40.184 237.338 41.2518 236.944 42.2635C236.495 43.5561 235.989 44.7925 235.427 46.0851C235.202 46.6472 234.752 47.153 234.471 47.6588C234.247 48.0522 234.078 48.5018 233.797 48.8952C233.404 49.4572 233.01 49.963 232.561 50.4126C231.774 51.2557 230.987 52.0987 230.144 52.8293C229.301 53.6161 228.346 54.3467 227.39 55.0211C227.109 55.2459 226.66 55.1897 226.322 55.3021C225.535 55.4708 224.692 55.6956 223.906 55.7518C223.231 55.8642 222.501 56.1452 221.77 55.808C221.714 55.808 221.658 55.7518 221.601 55.808C220.815 56.37 219.915 55.9766 219.072 56.2576C218.848 56.3138 218.567 56.2014 218.286 56.1452C217.78 56.089 217.218 56.089 216.712 56.0328C216.206 55.9766 216.318 55.527 216.262 55.1335ZM243.688 43.6685C243.688 43.6123 243.688 43.6123 243.688 43.5561C243.688 43.6123 243.688 43.6685 243.688 43.6685Z" fill="#161612"/>
<path d="M197.21 17.31C196.648 17.31 196.03 17.3662 195.468 17.31C194.681 17.31 193.894 17.31 193.107 17.2538C192.208 17.1976 191.253 17.0852 190.353 16.9728C190.128 16.9728 189.847 16.9166 189.623 16.8604V16.8042V16.8604C188.611 16.9728 187.599 17.3662 186.532 16.9728C186.307 16.9166 185.97 16.9728 185.689 17.0852C185.576 17.0852 185.464 17.2538 185.464 17.3662C185.464 17.4224 185.576 17.5348 185.689 17.591C186.251 17.872 186.813 18.153 187.318 18.4902C187.993 18.996 188.555 19.6142 189.173 20.1201C189.566 20.4011 190.016 20.5697 190.409 20.8507C190.634 21.0193 191.084 21.1317 191.028 21.5813C190.915 23.3235 190.803 25.0658 190.69 26.808C190.634 27.9882 190.578 29.1685 190.522 30.3487C190.466 31.0793 190.466 31.7537 190.466 32.4843C190.466 33.6084 190.466 34.7324 190.466 35.8002C190.466 37.3176 190.522 38.8351 190.522 40.3525C190.522 41.0831 190.353 41.8137 190.353 42.5444C190.409 44.68 190.522 46.8157 190.634 48.9513C190.69 49.9629 190.69 51.0308 190.69 52.0424C190.69 52.1548 190.634 52.2672 190.522 52.3796C190.522 52.3796 190.353 52.3796 190.297 52.3234C190.016 51.9862 189.679 51.7052 189.454 51.3118C189.173 50.9184 188.948 50.5249 188.723 50.1315C188.499 49.7381 188.274 49.3447 188.049 48.9513C187.993 48.8389 187.88 48.7827 187.824 48.6703C187.656 48.5017 187.543 48.3331 187.431 48.1083C187.262 47.7711 187.15 47.2653 186.869 47.0405C186.475 46.7595 186.363 46.4785 186.194 46.085C186.082 45.804 185.745 45.5792 185.52 45.2982C185.127 44.7362 184.789 44.2304 184.396 43.6684C184.284 43.4998 184.115 43.3312 184.059 43.1626C183.778 42.6568 183.497 42.151 183.216 41.6451C183.103 41.3641 182.991 41.1393 182.822 40.8583C182.71 40.6897 182.541 40.5773 182.373 40.4649C182.148 39.9591 181.923 39.4533 181.642 38.9475C181.305 38.3855 180.968 37.7111 180.462 37.2614C180.125 36.9804 180.012 36.6432 179.844 36.306C179.619 35.8564 179.225 35.5192 178.888 35.1258C178.776 34.9572 178.495 34.8448 178.382 34.5638C178.27 34.339 178.101 34.0018 177.989 34.0018C177.427 34.058 177.539 33.6084 177.427 33.3274C177.371 33.1588 177.315 33.0463 177.258 32.8777C176.696 32.1471 176.134 31.4165 175.572 30.6297C175.123 30.0677 174.729 29.4495 174.336 28.8313C174.055 28.3816 173.774 27.932 173.437 27.4824C172.875 26.6956 172.256 25.9088 171.638 25.122C171.582 25.0658 171.582 25.0096 171.582 24.9534C171.357 24.6724 171.132 24.3914 170.908 24.1103C170.795 23.9417 170.627 23.8293 170.514 23.6607C170.177 23.1549 169.84 22.6491 169.446 22.1433C168.941 21.4689 168.379 20.7945 167.817 20.1201C167.479 19.6704 167.142 19.2208 166.805 18.7712C166.524 18.434 166.187 18.0968 166.074 17.6472C165.793 16.748 165.231 16.3546 164.332 16.467C164.22 16.467 164.163 16.5794 164.051 16.6356C163.096 16.5794 161.353 16.5794 161.241 16.5794C160.735 16.5794 160.229 16.5794 159.724 16.5794C158.543 16.5232 157.307 16.467 156.127 16.467C156.014 16.467 155.846 16.748 155.846 16.9166C155.846 17.0852 155.958 17.2538 156.071 17.4224C156.801 18.2654 157.532 19.0522 158.206 19.8953C158.431 20.1763 158.656 20.5135 158.712 20.7945C158.824 21.5251 158.768 22.3119 158.768 23.0425C158.824 24.3914 158.824 25.7964 158.881 27.1452C158.937 27.8758 159.105 28.6064 159.105 29.2809C159.105 30.1801 158.937 31.0231 158.881 31.9223C158.824 32.4843 158.824 33.0463 158.881 33.6084C158.993 34.5638 159.218 35.5192 159.33 36.4746C159.386 36.9804 159.386 37.5424 159.386 38.0483C159.386 38.5541 159.33 39.0599 159.33 39.5657C159.33 40.3525 159.386 41.1955 159.443 41.9823C159.443 42.6006 159.443 43.2188 159.499 43.837C159.555 44.5676 159.724 45.242 159.78 45.9726C159.948 48.7265 160.061 51.4804 160.173 54.2342C160.229 54.9086 159.892 55.3583 159.274 55.6393C158.712 55.9203 158.206 56.2575 157.7 56.5947C157.251 56.9319 156.801 57.3253 156.352 57.7187C156.014 57.9997 156.071 58.5055 156.408 58.6179C156.689 58.7303 156.97 58.8427 157.251 58.8427C157.869 58.8989 158.487 58.8427 159.105 58.8989C160.735 58.8989 162.421 58.9551 164.051 58.9551C165.231 58.9551 166.468 58.9551 167.648 58.8989C167.76 58.8989 167.929 58.7303 168.041 58.6179C168.041 58.6179 167.985 58.4493 167.929 58.3931C167.086 58.1121 166.58 57.4377 166.018 56.8757C165.625 56.5385 165.119 56.2575 164.669 56.0327C164.22 55.8079 163.545 54.7962 163.545 54.3466C163.545 54.0094 163.714 53.5598 163.545 53.2788C163.152 52.6606 163.433 51.9862 163.377 51.368C163.32 50.4687 163.32 49.6257 163.264 48.7265C163.208 47.9397 163.152 47.1529 163.152 46.3661C163.152 45.4668 163.264 44.5114 163.208 43.6122C163.208 42.7692 163.039 41.9261 162.983 41.0831C162.927 39.1161 162.927 37.2052 162.927 35.2382C162.927 34.4514 162.871 33.6646 162.927 32.8777C162.983 31.8661 163.096 30.7983 163.152 29.7867C163.152 29.0561 163.039 28.2692 163.039 27.5386C163.039 26.3022 163.096 25.0096 163.096 23.7731C163.096 23.6607 163.152 23.5483 163.152 23.4359C163.264 23.5483 163.377 23.6045 163.433 23.7169C163.826 24.3352 164.164 25.0096 164.501 25.6278C165.625 27.4262 166.805 29.2809 167.985 31.0793C168.098 31.3041 168.266 31.4165 168.435 31.6413C168.828 32.2033 169.278 32.7653 169.671 33.2712C169.727 33.3274 169.784 33.3274 169.784 33.3274C170.908 34.901 171.975 36.5308 173.099 38.1045C173.999 39.3971 174.898 40.7459 175.797 42.0948C176.64 43.275 177.483 44.399 178.382 45.5792C179.394 46.9281 180.349 48.3331 181.361 49.6819C182.373 51.0308 183.328 52.4358 184.396 53.7846C185.464 55.1896 186.588 56.5385 187.768 57.8873C187.993 58.1121 188.386 58.2807 188.723 58.2245C189.791 58.1683 190.915 58.1121 191.983 57.9997C192.32 57.9435 192.433 57.9435 192.433 58.3369C192.433 58.5055 192.658 58.7303 192.826 58.8989C192.995 58.7303 193.276 58.5617 193.332 58.3931C193.444 58.1121 193.388 57.8311 193.388 57.4939C193.388 56.4823 193.332 55.4145 193.332 54.4028C193.332 53.3912 193.332 52.3796 193.332 51.368C193.332 50.5249 193.276 49.6257 193.332 48.7827C193.444 47.0405 193.613 45.242 193.669 43.4998C193.669 42.994 193.501 42.4882 193.557 41.9261C193.613 39.9029 193.669 37.8235 193.725 35.8002C193.782 33.2712 193.894 30.7421 194.006 28.213C194.006 27.5386 194.175 26.8642 194.231 26.1898C194.287 25.5154 194.231 24.841 194.231 24.1666C194.231 23.7169 194.287 23.3235 194.175 22.9301C193.95 22.1995 194.119 21.4689 194.287 20.7383C194.568 20.5697 194.849 20.4011 195.13 20.1763C195.355 20.0077 195.58 19.8391 195.805 19.6142C196.311 19.2208 196.76 18.7712 197.322 18.434C197.772 18.153 198.334 17.9844 198.727 17.7034C198.84 17.591 198.84 17.31 198.896 17.0852C198.727 17.0852 198.559 17.029 198.446 17.029C197.997 17.2538 197.603 17.2538 197.21 17.31ZM182.373 40.6897V40.7459C182.317 40.7459 182.317 40.7459 182.373 40.6897C182.317 40.6897 182.317 40.6897 182.373 40.6897Z" fill="#161612"/>
<path d="M145.954 57.6063C145.224 57.1567 144.493 56.8195 143.819 56.3699C143.65 56.2575 143.482 55.9203 143.425 55.7517C143.425 55.1897 143.594 54.5715 143.538 54.0094C143.369 52.8854 143.875 51.7052 143.425 50.5812C143.369 50.4688 143.425 50.3564 143.425 50.1878C143.425 49.4571 143.819 48.6703 143.144 48.0521C143.088 47.9959 143.144 47.8273 143.144 47.7149C143.538 47.9397 143.369 47.6025 143.369 47.4901C143.369 46.4785 143.313 45.523 143.313 44.5114C143.257 43.1626 143.201 41.7576 143.201 40.4087C143.201 40.2963 143.088 40.1277 143.144 40.0153C143.594 39.0599 143.088 38.1607 143.144 37.2053C143.201 36.587 142.807 35.9688 143.201 35.4068C143.257 35.3506 143.201 35.2944 143.201 35.2382C143.088 34.1704 143.032 33.1026 142.92 32.0347C142.863 31.5851 142.751 31.1355 142.695 30.6859C142.695 30.5735 142.695 30.5173 142.695 30.4049C142.751 29.6181 142.92 28.8875 142.92 28.1007C142.92 27.2576 142.807 26.4146 142.751 25.5154C142.751 25.0658 142.863 24.56 142.807 24.1104C142.639 23.0987 142.639 22.1433 142.751 21.1879C142.807 20.7383 143.032 20.3449 143.538 20.2325C143.65 20.2325 143.706 20.1201 143.763 20.0077C144.437 19.4457 145.168 18.8274 145.842 18.2654C145.954 18.153 146.011 17.9844 146.123 17.872C146.011 17.8158 145.842 17.6472 145.673 17.6472C145.336 17.6472 144.999 17.6472 144.662 17.6472C143.763 17.6472 142.863 17.6472 141.964 17.7034C141.515 17.7034 141.009 17.872 140.559 17.872C139.435 17.872 138.311 17.872 137.187 17.872C136.175 17.872 135.164 18.0406 134.152 17.7596C134.04 17.7034 133.759 18.0406 133.646 18.2654C133.59 18.3216 133.702 18.6026 133.815 18.6588C134.489 19.0522 135.22 19.4457 135.894 19.7829C136.625 20.1763 137.356 20.5697 138.03 21.0193C138.199 21.1317 138.311 21.3565 138.311 21.5251C138.367 22.0871 138.423 22.5929 138.311 23.1549C138.086 24.2228 138.142 25.2344 138.311 26.246C138.423 26.9204 138.311 27.5948 138.311 28.2693C138.255 29.1123 138.086 30.0115 138.03 30.8545C137.974 31.5289 138.03 32.1471 137.974 32.8216C137.974 33.4398 137.861 34.058 137.861 34.62C137.861 35.182 137.918 35.744 137.918 36.306C137.918 36.5308 137.861 36.868 137.749 36.9243C137.412 37.0929 137.637 37.1491 137.693 37.3177C137.805 37.4301 137.974 37.5987 137.974 37.7673C138.03 38.2169 138.03 38.6665 137.974 39.1161C137.918 40.4087 137.861 41.7014 137.805 42.994C137.749 43.9494 137.805 44.961 137.749 45.9165C137.693 47.3215 137.58 48.7265 137.524 50.1316C137.524 50.5812 137.58 50.9746 137.524 51.4242C137.299 52.6044 137.243 53.7284 137.412 54.9087C137.468 55.2459 137.412 55.5269 137.131 55.6955C136.737 55.8641 136.625 56.5385 136.007 56.4261C135.951 56.4261 135.951 56.4823 135.894 56.5385C135.445 56.9881 135.051 57.3815 134.658 57.8311C134.602 57.8873 134.546 57.8873 134.489 57.8873C134.04 57.9997 134.152 58.3369 134.208 58.5617C134.265 58.7303 134.546 58.899 134.714 58.899C135.726 58.899 136.737 58.7865 137.749 58.7865C138.985 58.7303 140.222 59.18 141.458 58.8427C141.852 58.7303 142.358 58.7865 142.695 58.6741C143.201 58.4493 143.65 58.4493 144.156 58.6179C144.437 58.6741 144.662 58.8989 144.887 58.8427C145.28 58.7865 145.673 58.7865 146.067 58.8427C146.179 58.8427 146.46 58.7303 146.516 58.5617C146.573 58.4493 146.46 58.2245 146.404 58.1121C146.235 57.7749 146.067 57.7187 145.954 57.6063ZM138.648 36.5308C138.648 36.4746 138.648 36.4746 138.648 36.5308C138.592 36.5308 138.592 36.5308 138.648 36.5308C138.592 36.5308 138.592 36.5308 138.648 36.5308Z" fill="#161612"/>
<path d="M122.631 18.434C121.17 18.434 119.709 18.3216 118.191 18.3216C116.955 18.3216 115.774 18.3778 114.538 18.434C114.426 18.434 114.257 18.4902 114.201 18.6026C113.864 19.2208 113.526 19.8953 113.133 20.5135C112.683 21.2441 112.009 21.8623 111.616 22.5929C110.604 24.3914 109.761 26.246 108.637 27.932C107.681 29.3371 106.951 30.8545 106.108 32.3719C105.714 33.1026 105.265 33.777 104.815 34.5076C104.534 35.0134 104.141 35.463 103.86 35.9688C103.466 36.6994 103.129 37.4301 102.68 38.1607C102.399 38.6103 102.118 39.1161 101.837 39.5657C101.556 39.9591 101.162 40.2963 100.993 40.7459C100.712 41.7576 99.9257 42.432 99.5323 43.3312C99.1389 44.2866 98.5206 45.1858 98.0148 46.1413C97.8462 46.4223 97.6214 46.5909 97.509 46.8719C97.2842 47.3215 97.1156 47.7711 96.947 48.2207C96.8908 48.3331 96.7784 48.4455 96.7222 48.5579C96.6098 48.4455 96.4974 48.3331 96.385 48.1645C95.8792 47.2653 95.4296 46.3661 94.9238 45.523C94.2493 44.2866 93.6311 43.1064 92.9567 41.9262C92.4509 41.0269 91.9451 40.1839 91.4393 39.3409C91.1583 38.9475 90.8773 38.6103 90.6525 38.2169C90.5401 38.0483 90.4277 37.7673 90.3153 37.5987C89.978 37.0929 89.5846 36.587 89.2474 36.0812C88.5168 34.901 87.8424 33.777 87.1118 32.5967C86.6622 31.8661 86.2688 31.0793 85.8192 30.3487C85.0323 28.8875 84.2455 27.4262 83.4587 25.965C83.0653 25.2906 82.7843 24.56 82.3909 23.8293C82.2223 23.4921 81.9975 23.1549 81.7727 22.8177C81.323 22.0871 80.8734 21.3565 80.3676 20.5697C80.0304 20.0639 79.6932 19.6143 79.4122 19.0522C79.1312 18.4902 78.9626 17.9282 78.7378 17.31C78.6816 17.1414 78.6816 16.8042 78.513 16.748C78.2882 16.6356 78.0072 16.6918 77.7262 16.6918C77.389 16.748 77.108 16.8042 76.7707 16.9166C76.6583 16.9166 76.0963 16.9728 75.5905 16.9728C75.1971 16.9166 74.8037 16.8604 74.4103 16.8604C73.0615 16.9166 71.7126 17.029 70.42 17.0852C69.9704 17.0852 69.5208 17.31 69.0712 17.029C68.7902 16.8604 68.6216 17.2538 68.6778 17.4786C68.6778 17.6472 68.9026 17.872 69.0712 17.9282C69.4646 18.0968 69.9704 18.0968 70.2514 18.3778C70.7572 18.9398 71.3192 19.4456 71.4316 20.3449C71.6002 22.0309 71.9374 23.6607 72.106 25.3468C72.3308 27.2014 72.4995 29.0561 72.6681 30.8545C72.7805 31.9785 72.8929 33.1026 73.0053 34.1704C73.2863 36.6432 73.6235 39.0599 73.9045 41.5328C74.0731 43.1064 74.0169 44.68 74.1293 46.3099C74.2417 47.6587 74.5227 48.9513 74.6351 50.3002C74.7475 51.9862 74.8037 53.6722 74.8599 55.3583C74.8599 55.4707 74.7475 55.6955 74.6351 55.7517C73.4549 56.5947 72.2184 57.3815 71.0382 58.1683C70.5886 58.4493 70.139 58.7303 69.6894 59.0675C69.577 59.1237 69.4084 59.3486 69.4646 59.4048C69.5208 59.6296 69.577 59.8544 69.9704 59.742C70.6448 59.5734 71.3754 59.5172 72.106 59.5172C73.3425 59.5172 74.5227 59.6296 75.7591 59.6296C76.9956 59.6296 78.2882 59.5172 79.5246 59.461C80.0304 59.461 80.5362 59.461 81.042 59.461C81.1544 59.461 81.2668 59.2361 81.323 59.1237C81.2106 59.0675 81.0982 58.9551 80.9296 58.8989C80.7048 58.8427 80.3676 58.8989 80.199 58.7303C79.356 58.1121 78.5692 57.4377 77.7824 56.8195C77.3328 56.4823 76.8269 56.1451 77.108 55.4707C77.108 55.4145 77.0518 55.3021 77.0518 55.1897C77.0518 54.9649 77.0518 54.74 77.0518 54.5152C77.108 54.3466 77.1642 54.178 77.1642 54.0094C77.1642 53.054 77.108 52.1548 77.1642 51.1994C77.1642 50.5812 77.2766 50.0191 77.2766 49.4009C77.2766 48.8389 77.1642 48.2207 77.1642 47.6587C77.108 46.9843 77.0518 46.3661 77.0518 45.6916C77.0518 44.399 77.0518 43.0502 77.0518 41.7576C77.0518 41.3641 76.9956 40.9707 76.9956 40.5773C76.9956 39.9029 76.9956 39.2847 76.9956 38.6103V38.4979C76.9394 38.0483 76.8269 37.5425 76.8269 37.0928C76.7707 35.9688 76.7145 34.7886 76.6583 33.6646C76.6021 32.0909 76.5459 30.5173 76.4335 28.9437C76.4335 28.3817 76.3773 27.8758 76.3773 27.37C76.3773 27.2576 76.4335 27.1452 76.4335 27.089C76.5459 27.1452 76.6583 27.2014 76.7145 27.3138C76.9956 27.651 77.2766 27.9882 77.5014 28.3817C77.8948 28.9999 78.2882 29.6181 78.6254 30.2925C78.9064 30.7983 79.075 31.3603 79.356 31.8661C79.8056 32.5967 80.3114 33.3274 80.761 34.1142C81.1544 34.7886 81.4355 35.5192 81.8289 36.1374C82.3909 37.0929 83.0653 37.9921 83.6273 38.9475C84.4141 40.2401 85.1447 41.5327 85.8754 42.8254C86.5498 43.9494 87.168 45.1296 87.7862 46.3099C88.1234 46.9281 88.4044 47.5463 88.7978 48.1645C89.5284 49.3447 90.3153 50.4688 91.0459 51.649C91.3831 52.211 91.7203 52.773 92.0575 53.335C92.2823 53.7284 92.4509 54.0656 92.6757 54.459C93.0691 55.0773 93.4625 55.6955 93.7997 56.3137C94.3055 57.2129 94.7552 58.1121 95.261 59.0113C95.4858 59.461 95.9354 59.5172 96.2164 59.18C96.7222 58.4493 97.228 57.6625 97.6776 56.8757C98.1272 56.1451 98.5206 55.3583 98.9703 54.5714C99.6447 53.4474 100.319 52.3234 100.993 51.2556C101.556 50.3001 102.23 49.4009 102.792 48.4455C103.242 47.7149 103.579 46.9281 103.972 46.1413C104.141 45.8602 104.478 45.5792 104.478 45.242C104.534 44.68 104.928 44.2304 105.152 43.7808C105.49 43.1064 105.883 42.3758 106.276 41.7014C106.726 40.9145 107.232 40.1277 107.738 39.3409C108.019 38.8351 108.243 38.3855 108.581 37.9359C108.974 37.3739 109.086 36.5308 109.817 36.1374C109.873 36.0812 109.873 35.9688 109.873 35.8564C110.098 35.2944 110.211 34.5638 110.66 34.2266C111.278 33.7208 111.278 32.9902 111.728 32.4281C112.234 31.8099 112.402 31.0231 112.796 30.2925C113.133 29.6743 113.47 29.0561 113.864 28.4941C113.92 28.3817 114.032 28.3817 114.145 28.3255C114.201 28.4379 114.257 28.5503 114.313 28.6065C114.369 29.1685 114.426 29.7867 114.482 30.4049C114.594 32.3157 114.65 34.1704 114.763 36.0812C114.819 37.4301 114.875 38.7227 114.931 40.0153C114.988 40.8021 115.156 41.5328 115.212 42.3196C115.269 43.8932 115.269 45.4106 115.269 46.9843C115.269 48.4455 115.156 49.8505 115.156 51.3118C115.1 52.7168 115.156 54.1218 115.1 55.5269C115.1 55.6393 114.988 55.8079 114.875 55.9203C113.976 56.7071 113.021 57.4939 112.065 58.2245C111.784 58.4493 111.616 58.6741 111.84 58.8989C112.009 59.1238 112.402 59.2362 112.683 59.18C113.133 59.1238 113.583 58.8989 114.032 58.8427C114.65 58.7865 115.269 58.8427 115.831 58.8427C116.112 58.8427 116.336 58.7303 116.617 58.7303C117.067 58.7865 117.573 58.8427 118.022 58.8989C118.191 58.8989 118.36 58.6741 118.528 58.6741C118.922 58.6741 119.315 58.7865 119.709 58.7303C119.99 58.7303 120.271 58.5055 120.552 58.3931C120.889 58.5055 121.226 58.6741 121.619 58.6741C121.788 58.6741 122.013 58.5055 122.238 58.4493C122.125 58.2245 122.125 57.9997 121.957 57.8873C121.338 57.4939 120.72 57.1005 120.102 56.7633C119.99 56.7071 119.877 56.5385 119.877 56.4261C119.765 55.4707 119.596 54.5152 119.596 53.5598C119.596 52.6606 119.765 51.7052 119.821 50.806C119.821 50.2439 119.765 49.6257 119.709 49.0637C119.652 48.1083 119.54 47.1529 119.54 46.1975C119.54 44.961 119.652 43.7246 119.652 42.4882C119.652 41.87 119.652 41.3079 119.652 40.6897C119.709 39.5657 119.821 38.4979 119.821 37.3739C119.877 35.744 119.821 34.058 119.877 32.4281C119.877 31.1355 119.99 29.8991 120.046 28.6065C120.102 27.1452 120.102 25.684 120.158 24.2228C120.214 23.3797 120.327 22.5367 120.495 21.7499C120.552 21.4127 120.72 21.0193 120.945 20.7945C121.282 20.5135 121.732 20.3449 122.125 20.1763C122.519 20.0077 122.856 19.7829 123.249 19.6143C123.474 19.5018 123.643 19.3894 123.811 19.277C123.924 19.2208 123.98 19.1084 124.036 18.996C124.148 18.8836 124.205 18.7712 124.317 18.6588C124.148 18.6026 123.98 18.434 123.811 18.434C123.362 18.3778 122.968 18.434 122.631 18.434Z" fill="#161612"/>
<path d="M24.7285 25.4029C24.8971 25.8525 23.9979 27.0328 23.7731 27.37C23.3797 27.9882 22.9863 28.6064 22.5367 29.1684C22.1995 29.618 21.7499 30.0114 21.3003 30.2362C20.963 30.3486 20.7382 30.461 20.401 30.6297C20.1762 30.7421 19.9514 30.8545 19.7266 30.9107C19.1084 31.1355 18.4902 31.4165 17.872 31.6975C17.5348 31.8661 16.8604 32.3719 16.4669 32.3157C16.4669 31.9223 16.6917 31.5851 16.2983 31.3603C16.5793 31.1917 16.4107 30.9669 16.4669 30.6859C16.4669 30.5172 16.3545 30.6859 16.4107 30.5172C16.4669 30.4048 16.6355 30.2924 16.6917 30.18C16.8042 29.899 16.6355 29.618 16.8604 29.3932C17.029 29.1684 17.5348 29.056 17.8158 28.9436C18.4902 28.6064 19.1646 28.2692 19.7828 27.932C20.12 27.7634 20.2886 27.651 20.6258 27.5386C20.9068 27.4262 21.244 27.4262 21.4689 27.1452C22.0871 26.7518 22.7053 26.4146 23.2673 26.0211C23.6607 25.7963 24.6161 24.8971 24.7285 25.4029Z" fill="#161612"/>
<path d="M23.6607 16.6355C24.5037 16.4107 25.4591 16.4107 26.3584 16.2983C26.1898 17.7596 25.965 19.277 25.7964 20.7382C25.7402 21.4127 25.684 22.2557 25.4591 22.8739C25.2343 23.4921 24.9533 23.2673 24.4475 23.4921C24.1103 23.6607 23.6045 23.9979 23.1549 24.2227C22.5929 24.5599 21.9747 24.7847 21.3565 25.0657C20.0638 25.7402 18.7712 26.3022 17.4224 26.808C17.4224 26.527 17.7034 25.1219 17.5348 25.0657C17.591 25.0095 17.7034 24.8971 17.7596 24.8409C17.7034 24.8409 17.6472 24.8409 17.591 24.8409C17.872 24.2789 18.0406 23.6607 18.153 23.0987C18.2092 22.9863 18.153 22.8739 18.0406 22.7615C18.153 22.7053 18.2092 22.6491 18.3216 22.5367C18.2654 22.1995 18.153 22.4243 17.9844 22.1995C18.7712 21.6375 18.715 20.5134 19.1084 19.6704C19.5018 18.8274 20.0076 18.153 20.8506 17.7034C21.8623 17.3662 22.6491 16.9166 23.6607 16.6355Z" fill="#161612"/>
<path d="M31.304 16.0174C30.9668 16.8604 30.5734 17.591 30.18 18.434C29.7866 19.2208 29.2246 19.8391 28.775 20.5697C28.4377 20.6821 28.2691 20.7945 28.0443 20.9631C27.9319 21.0755 27.8195 21.4127 27.5947 21.3565C27.7633 19.9515 27.8757 18.5464 28.1005 17.1414C28.1567 16.9166 28.1005 16.467 28.2129 16.2422C28.3815 15.9612 28.7188 15.9612 29.056 15.905C29.7866 15.8488 30.5172 15.9612 31.304 16.0174Z" fill="#161612"/>
<path d="M53.9532 12.1395C50.5811 5.05812 44.4552 0.955425 36.5308 0.168607C32.6529 -0.224802 28.8874 0.337211 25.0658 0.505815C20.7383 0.674418 16.9166 0.899224 13.1511 2.92247C7.86815 5.73253 4.83329 11.3527 3.03484 16.8042C1.0116 22.9301 0.674389 29.2247 0.393383 35.8002C0.112376 42.6568 -0.449637 49.7943 0.674389 56.8195C1.1802 60.023 1.2364 63.1703 3.70926 66.0927C5.84491 68.5656 9.10458 70.1954 12.0833 71.4318C18.6588 74.0733 26.4146 75.4783 33.4397 74.8039C40.4087 74.0733 49.3447 71.7691 52.8292 65.1373C57.1567 56.9881 57.6063 45.523 57.6063 36.3622C57.6625 27.9882 57.4939 19.6143 53.9532 12.1395ZM49.6257 37.3739C49.6819 37.7111 49.7381 37.9921 49.7381 38.3293C49.6819 39.0599 49.7943 39.8467 49.6819 40.5211C49.5695 41.3642 49.4571 42.3196 49.5133 43.1064C49.5133 43.556 49.4009 44.0618 49.4009 44.4552C49.3447 44.961 49.1199 45.4106 49.1199 45.9165C49.1199 46.3661 49.2323 46.8157 49.2323 47.2653C49.2323 47.8273 49.1199 48.3893 49.0637 48.9513C49.0075 49.4009 49.0075 49.9067 48.8389 50.3564C48.7265 50.5812 48.5579 50.6936 48.5579 50.9746C48.5017 52.0424 48.3331 53.1664 48.0521 54.2342C47.7711 55.1897 47.5463 56.2013 47.2653 57.1567C47.1529 57.6063 47.0405 57.9997 46.8157 58.3931C46.5908 58.899 46.3098 59.2362 45.9726 59.6858C45.523 60.304 45.0172 61.2594 44.4552 61.9338C43.8932 62.552 43.275 63.1703 42.7692 63.7323C42.2071 64.3505 41.0831 64.3505 40.4087 64.6877C39.6219 65.0811 38.7789 65.4183 37.9358 65.6993C36.9804 65.9803 35.9126 66.0927 34.9572 66.3175C33.777 66.5985 32.6529 66.8795 31.4165 66.9357C29.2809 67.0481 27.1452 66.9919 25.0658 66.5985C23.9979 66.3737 22.8739 66.3737 21.7499 66.2613C20.6821 66.1489 19.7266 65.9241 18.715 65.6993C16.748 65.1935 15.0619 64.5191 13.4321 63.3389C12.7015 62.7768 12.1395 62.1024 11.465 61.5404C10.7906 60.9222 10.4534 59.8544 10.2286 59.0676C9.9476 58.2807 9.8914 57.3253 9.779 56.4823C9.61039 55.5269 9.44179 54.5153 9.27319 53.5598C8.99218 51.7052 8.54257 49.9067 8.31777 48.0521C8.26156 47.6025 8.31777 47.1529 8.26156 46.7033C8.20536 46.1413 8.09296 45.5792 8.03676 45.0172C7.92436 44.118 7.75575 42.8254 8.31777 42.0386C8.65497 41.589 8.93598 41.6452 9.32939 41.3642C9.6666 41.0831 9.9476 40.6897 10.2286 40.3525C10.5096 39.9591 11.5212 38.2169 12.1957 39.0599C12.3081 39.1723 12.2519 39.3409 12.2519 39.4533C12.2519 39.6781 12.1957 39.9029 12.1957 40.1277C12.2519 40.3525 12.4205 40.6335 12.4767 40.9145C12.5891 41.308 12.7015 41.7576 12.7577 42.151C12.8139 42.3758 12.8139 42.4882 12.8139 42.713C12.8139 43.1626 12.7577 43.1626 13.2073 43.3312C13.6569 43.4998 14.2189 43.3874 14.6123 43.6122C14.6123 43.6684 14.8933 43.8932 15.0619 43.9494C15.3991 44.118 15.3429 44.0618 15.3429 44.4552C15.4553 45.5792 15.5115 46.7033 15.6801 47.8273C15.8487 48.8389 16.0735 49.9067 16.2421 50.9184C16.2983 51.368 16.2983 51.8176 16.3546 52.2672C16.3546 52.3796 16.467 52.4358 16.467 52.5482C16.5232 52.6606 16.5232 52.773 16.467 52.8292C16.2421 52.9416 16.2421 53.054 16.467 53.1664C16.6356 53.9532 16.748 54.7401 16.8042 55.5269C16.9166 56.4823 17.4224 57.6063 18.0406 58.3931C18.6026 59.0676 19.0522 59.1238 19.8952 59.2362C20.9631 59.461 21.8623 59.6296 22.8739 59.9106C24.9534 60.4164 27.2014 60.1916 29.3371 60.1916C29.7305 60.1916 30.0115 60.0792 30.4049 60.023C30.9107 59.9668 31.4727 59.9668 31.9785 59.9106C32.9339 59.7982 34.0018 59.5172 34.8448 59.0676C36.4746 58.1683 38.2731 57.3253 39.4533 55.8641C39.7905 55.4707 40.0715 55.0211 40.2963 54.5715C40.4649 54.178 40.4649 53.7846 40.6335 53.3912C40.8021 53.054 41.1393 52.9416 41.2517 52.5482C41.4203 52.0424 41.4203 51.368 41.4765 50.8622C41.5327 49.9067 41.5889 48.9513 41.7013 47.9397C41.7013 47.6025 41.8137 47.0967 41.8137 46.9281C41.8699 46.3099 41.8699 45.6917 41.9261 45.0734C42.0385 43.2188 41.9261 41.2517 41.9261 39.3409C41.9261 38.7789 41.8137 38.2731 41.8137 37.7111C41.8137 37.3177 41.8699 37.1491 41.8699 36.8118C41.9823 35.6316 41.8137 34.5638 41.7575 33.3836C41.6451 31.5851 41.5327 29.6181 41.3641 27.7634C41.3079 26.8642 41.0831 25.9088 40.8021 25.0096C40.5211 24.0542 40.3525 23.0425 40.0715 22.1433C39.7343 21.1879 39.3409 20.2887 38.8351 19.3894C38.4417 18.6588 37.711 18.0406 37.149 17.7596C36.306 17.31 35.5192 16.8604 34.62 16.5232C34.339 16.4108 33.7208 16.186 33.4397 16.3546C33.3273 16.4108 33.1587 16.9166 33.1025 17.029C32.9339 17.2538 32.7653 17.4786 32.5967 17.7034C32.1471 18.3778 31.7537 19.0522 31.1917 19.6705C30.8545 20.0639 30.6297 20.5135 30.2363 20.9069C30.0677 21.0755 29.8991 21.2441 29.7305 21.4127C29.6181 21.4689 29.5619 21.5813 29.4495 21.6375C29.4495 21.7499 29.4495 21.8623 29.4495 21.9185C28.8312 22.7615 27.5948 23.1549 26.9766 23.998L26.9204 23.9418C26.8642 24.1104 26.8642 24.3352 26.808 24.5038C26.7518 24.6724 26.7518 24.8972 26.6956 25.0658C26.5832 25.684 26.4146 26.3022 26.1336 26.8642C25.3468 28.4941 24.1665 30.2363 22.8177 31.4727C22.1433 32.0909 21.2441 32.4281 20.4572 32.8778C20.0076 33.1026 19.6142 33.3274 19.1646 33.5522C18.7712 33.7208 18.2092 33.8332 17.8158 34.058C17.7596 34.058 17.4786 34.2266 17.4224 34.2828C17.1976 34.339 16.9728 34.3952 16.748 34.5076C16.2983 34.62 16.2983 34.7324 16.2421 35.182C16.1297 35.8564 16.1297 36.4746 16.1859 37.1491C16.2421 38.0483 16.2983 39.0037 16.2983 39.9591C16.2983 40.2401 16.2421 40.0715 16.2983 40.4087C16.3546 40.7459 16.5232 40.7459 16.4108 41.1393C16.2983 41.5328 16.1297 41.4204 15.7925 41.6452C15.4553 41.87 15.2867 41.8138 15.2867 41.7014C15.0057 41.7014 14.6685 41.7576 14.3875 41.7014C14.0503 41.589 14.1065 41.5328 14.1065 41.2518C14.0503 40.6335 14.0503 40.0715 13.9941 39.4533C13.9379 38.8913 13.8817 38.3855 13.7131 37.8235C13.7131 37.8235 13.6569 37.2053 13.7131 37.2053C13.6007 36.8118 13.1511 35.4068 13.1511 34.9572C13.1511 34.7324 13.4321 33.9456 12.9263 34.0018C12.7577 34.058 12.5891 34.6762 12.4767 34.8448C12.3081 35.2382 11.8022 36.306 11.465 36.5308C10.903 36.9243 10.3972 37.7111 9.9476 38.2169C9.38559 38.8351 8.87978 39.6219 8.31777 40.1839C7.75575 40.6897 6.91273 40.2963 6.46312 39.7905C5.95731 39.2285 6.12592 38.7789 6.46312 38.2169C6.68793 37.8797 6.96893 37.5425 7.24994 37.2615C7.47475 36.9805 7.98056 36.6994 8.09296 36.3622C8.31777 35.744 7.75575 34.5638 7.64335 33.8894C7.53095 33.1026 7.19374 32.2595 6.96893 31.4165C6.91273 31.1917 6.91273 31.1355 6.91273 30.8545C6.96893 30.7421 6.96893 30.6859 7.02514 30.5735C6.96893 30.5173 6.96893 30.4611 6.91273 30.4049C6.85653 30.3487 6.85653 30.2925 6.80033 30.1801C6.85653 30.0115 6.96893 29.8429 7.02514 29.6181C7.08134 29.4495 7.19374 29.2247 7.24994 29.0561C7.24994 28.9999 7.19374 28.8875 7.19374 28.8313C7.24994 28.8875 7.30614 28.8313 7.30614 28.7189C7.36234 28.4941 7.47475 28.3255 7.58715 28.1006C7.75575 27.651 7.98056 27.2576 8.14916 26.8642C8.71117 25.5154 9.61039 23.8293 9.49799 22.3681C9.49799 22.1995 9.32939 21.8061 9.21699 21.6937C8.99218 21.4127 8.93598 21.1317 8.76738 20.8507C8.59877 20.5697 8.31777 20.3449 8.14916 20.0639C7.98056 19.7267 7.86816 19.277 7.69955 18.9398C7.53095 18.6026 7.41854 18.2092 7.13754 17.9282C6.74413 17.5348 6.57553 17.591 6.68793 17.029C6.80033 16.1298 6.74413 15.1744 7.24994 14.3875C7.41854 14.1065 7.53095 13.4883 7.81195 13.3197C7.98056 13.2073 8.48637 13.3197 8.59877 13.4883C8.65497 13.6007 8.65497 14.0503 8.71117 14.1627C8.76738 14.3875 8.87978 14.6123 8.93598 14.7809C9.04838 15.0057 9.32939 15.8488 9.49799 15.7926C9.61039 16.2422 9.8352 16.4108 10.1162 16.8042C10.3972 17.2538 10.6782 17.7034 10.9592 18.153C11.6336 17.1414 11.9708 16.0174 12.6453 15.0057C13.3197 13.9941 14.2751 13.0949 15.1181 12.2519C15.4553 11.9147 15.9611 11.5213 16.4108 11.2403C16.8042 11.0155 17.2538 10.6782 17.7034 10.5658C17.9844 10.5096 18.0968 10.5096 18.3216 10.3972C18.434 10.2848 18.4902 10.1162 18.6588 10.06C18.8274 9.94763 19.0522 10.0038 19.277 9.94763C19.4456 9.89143 19.9514 9.72283 20.2324 9.66663C21.4127 9.38562 22.6491 8.93601 23.8293 8.655C25.0658 8.4302 26.3584 8.4864 27.5948 8.26159C28.213 8.14919 28.494 7.64338 28.9436 7.19377C29.3933 6.68796 29.8991 6.18215 30.3487 5.67633C30.7983 5.22672 31.2479 4.88952 31.7537 4.60851C32.1471 4.49611 32.3719 4.3275 32.5967 4.2151C32.9339 4.1027 33.3835 4.1589 33.7208 4.1027C34.1142 4.0465 34.4514 3.93409 34.8448 3.93409C35.182 3.87789 35.463 3.82169 35.5192 4.2151C35.5192 4.88952 34.339 5.00192 33.8332 5.22672C33.1025 5.50773 32.5967 5.95734 31.9785 6.40695C31.4727 6.80036 30.7421 7.30617 30.6297 7.92439C32.0347 7.92439 33.4397 7.92439 34.8448 7.81198C35.463 7.75578 36.3622 8.20539 36.9242 7.92439C37.3738 7.69958 37.7672 7.19377 38.1045 6.96896C38.8351 6.51935 40.3525 5.17052 41.3079 5.67633C42.0385 6.06974 41.1393 6.40695 40.8021 6.68796C40.2963 7.08137 39.8467 7.41857 39.5095 7.98059C39.2285 8.03679 39.1161 8.31779 39.2847 8.5988C39.3971 8.87981 39.6781 8.87981 39.9029 8.99221C40.1277 9.10461 40.3525 9.38562 40.5773 9.49802C40.8021 9.61042 41.0269 9.66663 41.1955 9.83523C41.4765 10.0038 41.7013 10.2286 41.9823 10.3972C42.3195 10.5658 42.713 10.622 43.0502 10.7907C43.6122 11.1279 44.0056 11.8023 44.399 12.3643C44.5676 12.5891 44.68 12.8139 44.8486 13.0387C45.0172 13.3197 45.2982 13.4883 45.4668 13.7693C45.804 14.2189 46.085 14.7809 46.3098 15.343C46.4222 15.624 46.366 15.905 46.4784 16.186C46.5908 16.2422 46.7032 16.2984 46.7594 16.4108C46.8157 16.5232 46.8157 16.5794 46.8157 16.6918C46.8719 16.9166 47.4901 18.0406 47.2653 18.153C47.6025 18.3778 47.4339 18.6588 47.4901 19.0522C47.5463 19.3332 47.6587 19.6705 47.7711 20.0639C47.9959 21.1317 48.4455 22.1995 48.6141 23.2673C48.6703 23.7169 48.6141 24.2228 48.6703 24.7286C48.7265 25.0658 48.8951 25.3468 48.9513 25.7402C49.0637 26.6956 49.1761 27.651 49.2885 28.6065C49.3447 29.0561 49.4009 29.4495 49.4009 29.8991C49.4571 30.2925 49.3447 30.6859 49.4009 31.0793C49.5695 31.9785 49.5695 32.8778 49.6257 33.7208C49.6257 33.8894 49.6257 34.1704 49.6257 34.339C49.6257 34.5076 49.4571 34.901 49.4571 35.0134C49.4571 35.1258 49.6257 35.2382 49.6257 35.3506C49.6257 35.5192 49.5133 35.5754 49.5133 35.744C49.5133 35.8002 49.5695 35.8564 49.5695 35.9126C49.6819 36.0812 49.6819 36.1936 49.5133 36.306C49.5695 36.3622 49.5695 36.4184 49.6257 36.4746C49.7943 36.587 49.7943 36.6994 49.6819 36.8118C49.6819 37.2053 49.5695 37.1491 49.6257 37.3739Z" fill="#161612"/>
</g>
</g>
<defs>
<clipPath id="clip0_2783_43082">
<rect width="411" height="75" fill="white"/>
</clipPath>
<clipPath id="clip1_2783_43082">
<rect width="411" height="74.9163" fill="white"/>
</clipPath>
</defs>
</svg>
