<svg width="20" height="20" viewBox="0 0 20 20" fill="none" xmlns="http://www.w3.org/2000/svg">
<g clip-path="url(#clip0_3984_10979)">
<path d="M3.7175 3.50565C4.33625 4.01003 4.57062 3.9744 5.73875 3.89628L16.7512 3.23565C16.9856 3.23565 16.7906 3.00128 16.7119 2.9619L14.8825 1.64003C14.5344 1.36628 14.0656 1.05753 13.17 1.1319L2.50937 1.91315C2.11875 1.94878 2.04062 2.1444 2.19687 2.30065L3.7175 3.50565ZM4.37812 6.0744V17.6594C4.37812 18.2813 4.6875 18.5157 5.3875 18.4763L17.4906 17.7763C18.1906 17.7369 18.2719 17.3107 18.2719 16.8032V5.29628C18.2719 4.78815 18.0762 4.51815 17.6469 4.55753L5.00062 5.29628C4.53187 5.33565 4.37875 5.56628 4.37875 6.07128L4.37812 6.0744ZM16.325 6.69253C16.4031 7.0444 16.325 7.39253 15.9731 7.43503L15.3906 7.55253V16.1038C14.8825 16.3775 14.4175 16.5338 14.03 16.5338C13.405 16.5338 13.2487 16.3382 12.7831 15.7557L8.96812 9.76628V15.5607L10.1756 15.8344C10.1756 15.8344 10.1756 16.5344 9.2025 16.5344L6.51687 16.6907C6.43875 16.5344 6.51687 16.1438 6.79062 16.0688L7.49062 15.8732V8.21378L6.5175 8.13565C6.43937 7.78378 6.635 7.2794 7.17812 7.24065L10.0587 7.04503L14.03 13.1125V7.7444L13.0175 7.6269C12.9394 7.20065 13.2487 6.88815 13.6394 6.8519L16.325 6.69253ZM1.61437 0.862526L12.705 0.045651C14.0656 -0.071849 14.4175 0.00627606 15.2731 0.628151L18.815 3.11815C19.3975 3.5444 19.5931 3.6619 19.5931 4.12753V17.7769C19.5931 18.6332 19.2806 19.1375 18.1931 19.2157L5.30875 19.9938C4.495 20.0332 4.10437 19.9157 3.67437 19.3719L1.06687 15.9863C0.60125 15.3644 0.40625 14.8988 0.40625 14.3557V2.22378C0.40625 1.52378 0.71875 0.941276 1.61375 0.863151L1.61437 0.862526Z" fill="white"/>
</g>
<defs>
<clipPath id="clip0_3984_10979">
<rect width="20" height="20" fill="white"/>
</clipPath>
</defs>
</svg>
