<svg width="448" height="448" viewBox="0 0 448 448" fill="none" xmlns="http://www.w3.org/2000/svg">
<rect width="448" height="448" rx="24" fill="#7BD195"/>
<path fill-rule="evenodd" clip-rule="evenodd" d="M131 125C134.314 125 137 127.686 137 131L137 303.181L313.424 126.757C315.767 124.414 319.566 124.414 321.909 126.757C324.252 129.101 324.252 132.9 321.909 135.243L145.485 311.667L317.667 311.667C320.98 311.667 323.667 314.353 323.667 317.667C323.667 320.98 320.98 323.667 317.667 323.667L131 323.667C129.409 323.667 127.883 323.035 126.757 321.909C125.632 320.784 125 319.258 125 317.667L125 131C125 127.686 127.686 125 131 125Z" fill="#0A3E54"/>
</svg>
