<svg width="274" height="28" viewBox="0 0 274 28" fill="none" xmlns="http://www.w3.org/2000/svg">
<path d="M1.106 11.776H2.632V13.008H2.716C2.93067 12.5693 3.21533 12.2287 3.57 11.986C3.92467 11.734 4.368 11.608 4.9 11.608C5.74933 11.608 6.426 11.9253 6.93 12.56C7.434 13.1947 7.686 14.1373 7.686 15.388C7.686 16.6387 7.434 17.5813 6.93 18.216C6.426 18.8507 5.74933 19.168 4.9 19.168C4.368 19.168 3.92467 19.0467 3.57 18.804C3.21533 18.552 2.93067 18.2067 2.716 17.768H2.632V21.8H1.106V11.776ZM4.27 17.922C4.84867 17.922 5.292 17.7447 5.6 17.39C5.91733 17.0353 6.076 16.564 6.076 15.976V14.8C6.076 14.212 5.91733 13.7407 5.6 13.386C5.292 13.0313 4.84867 12.854 4.27 12.854C4.046 12.854 3.836 12.882 3.64 12.938C3.444 12.994 3.27133 13.078 3.122 13.19C2.97267 13.302 2.85133 13.442 2.758 13.61C2.674 13.7687 2.632 13.96 2.632 14.184V16.592C2.632 16.816 2.674 17.012 2.758 17.18C2.85133 17.3387 2.97267 17.474 3.122 17.586C3.27133 17.698 3.444 17.782 3.64 17.838C3.836 17.894 4.046 17.922 4.27 17.922ZM12.5945 19.168C12.0625 19.168 11.5819 19.0793 11.1525 18.902C10.7325 18.7247 10.3732 18.4727 10.0745 18.146C9.7852 17.8193 9.5612 17.4227 9.40253 16.956C9.24386 16.4893 9.16453 15.9667 9.16453 15.388C9.16453 14.8093 9.24386 14.2867 9.40253 13.82C9.5612 13.3533 9.7852 12.9567 10.0745 12.63C10.3732 12.3033 10.7325 12.0513 11.1525 11.874C11.5819 11.6967 12.0625 11.608 12.5945 11.608C13.1265 11.608 13.6025 11.6967 14.0225 11.874C14.4519 12.0513 14.8112 12.3033 15.1005 12.63C15.3992 12.9567 15.6279 13.3533 15.7865 13.82C15.9452 14.2867 16.0245 14.8093 16.0245 15.388C16.0245 15.9667 15.9452 16.4893 15.7865 16.956C15.6279 17.4227 15.3992 17.8193 15.1005 18.146C14.8112 18.4727 14.4519 18.7247 14.0225 18.902C13.6025 19.0793 13.1265 19.168 12.5945 19.168ZM12.5945 17.964C13.1545 17.964 13.5979 17.796 13.9245 17.46C14.2605 17.1147 14.4285 16.606 14.4285 15.934V14.842C14.4285 14.17 14.2605 13.666 13.9245 13.33C13.5979 12.9847 13.1545 12.812 12.5945 12.812C12.0345 12.812 11.5865 12.9847 11.2505 13.33C10.9239 13.666 10.7605 14.17 10.7605 14.842V15.934C10.7605 16.606 10.9239 17.1147 11.2505 17.46C11.5865 17.796 12.0345 17.964 12.5945 17.964ZM17.0691 11.776H18.3711L19.0711 17.852H19.1971L20.2751 11.776H21.7591L22.8231 17.852H22.9491L23.6631 11.776H24.9091L23.9011 19H22.0251L21.0591 13.4H20.9331L19.9531 19H18.0771L17.0691 11.776ZM29.5376 19.168C28.9869 19.168 28.4923 19.0793 28.0536 18.902C27.6149 18.7247 27.2463 18.4727 26.9476 18.146C26.6489 17.8193 26.4203 17.4273 26.2616 16.97C26.1029 16.5033 26.0236 15.9807 26.0236 15.402C26.0236 14.8233 26.1029 14.3007 26.2616 13.834C26.4296 13.3673 26.6583 12.9707 26.9476 12.644C27.2463 12.308 27.6056 12.0513 28.0256 11.874C28.4456 11.6967 28.9123 11.608 29.4256 11.608C29.9296 11.608 30.3869 11.6967 30.7976 11.874C31.2083 12.042 31.5583 12.2847 31.8476 12.602C32.1369 12.9193 32.3563 13.2973 32.5056 13.736C32.6643 14.1747 32.7436 14.66 32.7436 15.192V15.766H27.5636V16.004C27.5636 16.5733 27.7409 17.04 28.0956 17.404C28.4503 17.7587 28.9403 17.936 29.5656 17.936C30.0323 17.936 30.4289 17.838 30.7556 17.642C31.0916 17.4367 31.3623 17.166 31.5676 16.83L32.5196 17.67C32.2769 18.09 31.9036 18.4447 31.3996 18.734C30.9049 19.0233 30.2843 19.168 29.5376 19.168ZM29.4256 12.77C29.1549 12.77 28.9029 12.8167 28.6696 12.91C28.4456 13.0033 28.2496 13.1387 28.0816 13.316C27.9229 13.484 27.7969 13.6847 27.7036 13.918C27.6103 14.1513 27.5636 14.408 27.5636 14.688V14.786H31.1896V14.646C31.1896 14.0767 31.0263 13.624 30.6996 13.288C30.3823 12.9427 29.9576 12.77 29.4256 12.77ZM34.6421 17.768H36.5601V13.008H34.6421V11.776H38.0861V13.694H38.1701C38.2355 13.442 38.3288 13.1993 38.4501 12.966C38.5715 12.7327 38.7255 12.532 38.9121 12.364C39.0988 12.1867 39.3275 12.0467 39.5981 11.944C39.8688 11.832 40.1861 11.776 40.5501 11.776H41.4181V13.232H39.9901C39.4301 13.232 38.9728 13.4 38.6181 13.736C38.2635 14.0627 38.0861 14.506 38.0861 15.066V17.768H40.7041V19H34.6421V17.768ZM46.3267 19.168C45.776 19.168 45.2813 19.0793 44.8427 18.902C44.404 18.7247 44.0353 18.4727 43.7367 18.146C43.438 17.8193 43.2093 17.4273 43.0507 16.97C42.892 16.5033 42.8127 15.9807 42.8127 15.402C42.8127 14.8233 42.892 14.3007 43.0507 13.834C43.2187 13.3673 43.4473 12.9707 43.7367 12.644C44.0353 12.308 44.3947 12.0513 44.8147 11.874C45.2347 11.6967 45.7013 11.608 46.2147 11.608C46.7187 11.608 47.176 11.6967 47.5867 11.874C47.9973 12.042 48.3473 12.2847 48.6367 12.602C48.926 12.9193 49.1453 13.2973 49.2947 13.736C49.4533 14.1747 49.5327 14.66 49.5327 15.192V15.766H44.3527V16.004C44.3527 16.5733 44.53 17.04 44.8847 17.404C45.2393 17.7587 45.7293 17.936 46.3547 17.936C46.8213 17.936 47.218 17.838 47.5447 17.642C47.8807 17.4367 48.1513 17.166 48.3567 16.83L49.3087 17.67C49.066 18.09 48.6927 18.4447 48.1887 18.734C47.694 19.0233 47.0733 19.168 46.3267 19.168ZM46.2147 12.77C45.944 12.77 45.692 12.8167 45.4587 12.91C45.2347 13.0033 45.0387 13.1387 44.8707 13.316C44.712 13.484 44.586 13.6847 44.4927 13.918C44.3993 14.1513 44.3527 14.408 44.3527 14.688V14.786H47.9787V14.646C47.9787 14.0767 47.8153 13.624 47.4887 13.288C47.1713 12.9427 46.7467 12.77 46.2147 12.77ZM56.1352 17.768H56.0512C55.8365 18.2067 55.5519 18.552 55.1972 18.804C54.8425 19.0467 54.3992 19.168 53.8672 19.168C53.0179 19.168 52.3412 18.8507 51.8372 18.216C51.3332 17.5813 51.0812 16.6387 51.0812 15.388C51.0812 14.1373 51.3332 13.1947 51.8372 12.56C52.3412 11.9253 53.0179 11.608 53.8672 11.608C54.3992 11.608 54.8425 11.734 55.1972 11.986C55.5519 12.2287 55.8365 12.5693 56.0512 13.008H56.1352V8.64H57.6612V19H56.1352V17.768ZM54.4972 17.922C54.7212 17.922 54.9312 17.894 55.1272 17.838C55.3232 17.782 55.4959 17.698 55.6452 17.586C55.7945 17.474 55.9112 17.3387 55.9952 17.18C56.0885 17.012 56.1352 16.816 56.1352 16.592V14.184C56.1352 13.96 56.0885 13.7687 55.9952 13.61C55.9112 13.442 55.7945 13.302 55.6452 13.19C55.4959 13.078 55.3232 12.994 55.1272 12.938C54.9312 12.882 54.7212 12.854 54.4972 12.854C53.9185 12.854 53.4705 13.0313 53.1532 13.386C52.8452 13.7407 52.6912 14.212 52.6912 14.8V15.976C52.6912 16.564 52.8452 17.0353 53.1532 17.39C53.4705 17.7447 53.9185 17.922 54.4972 17.922ZM68.2623 8.64H69.7883V13.008H69.8723C70.0869 12.5693 70.3716 12.2287 70.7263 11.986C71.0809 11.734 71.5243 11.608 72.0563 11.608C72.9056 11.608 73.5823 11.9253 74.0863 12.56C74.5903 13.1947 74.8423 14.1373 74.8423 15.388C74.8423 16.6387 74.5903 17.5813 74.0863 18.216C73.5823 18.8507 72.9056 19.168 72.0563 19.168C71.5243 19.168 71.0809 19.0467 70.7263 18.804C70.3716 18.552 70.0869 18.2067 69.8723 17.768H69.7883V19H68.2623V8.64ZM71.4263 17.922C72.0049 17.922 72.4483 17.7447 72.7563 17.39C73.0736 17.0353 73.2323 16.564 73.2323 15.976V14.8C73.2323 14.212 73.0736 13.7407 72.7563 13.386C72.4483 13.0313 72.0049 12.854 71.4263 12.854C71.2023 12.854 70.9923 12.882 70.7963 12.938C70.6003 12.994 70.4276 13.078 70.2783 13.19C70.1289 13.302 70.0076 13.442 69.9143 13.61C69.8303 13.7687 69.7883 13.96 69.7883 14.184V16.592C69.7883 16.816 69.8303 17.012 69.9143 17.18C70.0076 17.3387 70.1289 17.474 70.2783 17.586C70.4276 17.698 70.6003 17.782 70.7963 17.838C70.9923 17.894 71.2023 17.922 71.4263 17.922ZM81.8648 11.776H83.4048L79.9048 20.4C79.7181 20.8667 79.4708 21.2167 79.1628 21.45C78.8641 21.6833 78.4301 21.8 77.8608 21.8H76.6428V20.568H78.3508L79.0088 18.902L76.0968 11.776H77.6928L78.8408 14.8L79.7368 17.278H79.8208L80.7168 14.8L81.8648 11.776Z" fill="white"/>
<path d="M128.454 15.1701C128.678 17.7858 130.653 19.847 133.242 19.847C135.191 19.847 136.694 18.7616 137.417 17.5917L138.837 18.7616C137.305 20.7105 135.385 21.5173 133.242 21.5173C129.373 21.5173 126.507 18.5953 126.507 14.6697C126.507 10.7442 129.373 7.82227 133.076 7.82227C137.028 7.84999 139.311 10.7719 139.311 14.3357V15.1715H128.456L128.454 15.1701ZM137.305 13.6676C137.305 11.1905 135.718 9.49257 133.074 9.49257C130.681 9.49257 128.51 11.5246 128.51 13.6676H137.306H137.305Z" fill="white"/>
<path d="M144.378 14.2238L139.646 8.15527H142.151L145.769 13.0262L149.22 8.15527H151.503L146.966 14.2238L152.422 21.1822H149.918L145.547 15.4769L141.344 21.1822H139.006L144.378 14.2238Z" fill="white"/>
<path d="M162.466 11.2166C161.853 10.2699 160.657 9.4908 159.21 9.4908C156.176 9.43535 154.311 11.6893 154.311 14.6681C154.311 17.6469 156.177 19.9007 159.21 19.8453C160.657 19.8453 161.855 19.0663 162.466 18.1196L163.969 19.2604C162.688 20.7629 160.962 21.4865 159.209 21.5142C154.95 21.5697 152.306 18.5922 152.306 14.6667C152.306 10.7411 154.95 7.76367 159.209 7.81912C160.962 7.84684 162.688 8.5704 163.969 10.073L162.466 11.2138V11.2166Z" fill="white"/>
<path d="M165.804 0.138672H167.64V10.2422H167.696C168.503 8.82283 170.341 7.82065 172.066 7.82065C175.378 7.82065 176.965 9.68639 176.965 12.9147V21.1816H175.128V13.9723C175.128 11.0781 174.322 9.49095 171.594 9.49095C171.204 9.49095 167.642 9.74184 167.642 14.5018V21.1816H165.805V0.138672H165.804Z" fill="white"/>
<path d="M187.929 13.193V12.859C187.929 10.6037 186.844 9.4906 184.589 9.4906C183.057 9.4906 181.722 10.0202 180.608 11.0209L179.495 9.71238C180.692 8.48704 182.557 7.82031 185.006 7.82031C187.455 7.82031 189.766 9.26743 189.766 12.4404V18.258C189.766 19.2602 189.877 20.4855 189.988 21.1813H188.207C188.096 20.5409 188.04 19.7619 188.04 19.0661H187.985C186.927 20.7918 185.48 21.5154 183.393 21.5154C181.082 21.5154 178.911 20.2346 178.911 17.7021C178.911 13.4716 183.893 13.193 187.01 13.193H187.929ZM186.983 14.6956C185.118 14.6956 180.914 14.8356 180.914 17.4512C180.914 19.177 182.501 19.8451 183.976 19.8451C186.649 19.8451 187.928 17.9516 187.928 15.6423V14.6956H186.981H186.983Z" fill="white"/>
<path d="M194.14 8.15436C194.224 8.8502 194.224 9.54605 194.224 10.2419H194.279C195.086 8.82249 196.924 7.82031 198.65 7.82031C201.961 7.82031 203.548 9.68604 203.548 12.9144V21.1813H201.712V13.972C201.712 11.0778 200.905 9.4906 198.177 9.4906C197.787 9.4906 194.225 9.74149 194.225 14.5015V21.1813H192.388V11.0223C192.388 10.3265 192.305 9.10248 192.25 8.15575H194.142L194.14 8.15436Z" fill="white"/>
<path d="M206.916 23.797C208.002 25.2441 209.811 26.1908 211.898 26.1908C215.628 26.1908 216.965 23.8802 216.965 21.0691V18.7307H216.909C215.741 20.4841 213.93 21.18 212.038 21.18C208.28 21.18 205.248 18.3689 205.248 14.5556C205.248 10.7423 208.031 7.82031 211.872 7.82031C213.431 7.82031 215.407 8.29298 216.911 10.3251H216.966V8.15436H218.803V21.0691C218.803 23.9079 217.662 27.8598 211.816 27.8598C209.227 27.8598 207.224 27.0253 205.554 25.2441L206.918 23.797H206.916ZM212.094 19.511C214.766 19.511 217.132 17.5067 217.02 14.5015C217.02 11.7736 215.156 9.4906 212.094 9.4906C209.366 9.4906 207.251 11.7736 207.251 14.5015C207.251 17.2295 209.366 19.511 212.094 19.511Z" fill="white"/>
<path d="M222.502 15.1701C222.724 17.7858 224.701 19.847 227.29 19.847C229.239 19.847 230.741 18.7616 231.465 17.5917L232.884 18.7616C231.354 20.7105 229.433 21.5173 227.29 21.5173C223.421 21.5173 220.555 18.5953 220.555 14.6697C220.555 10.7442 223.421 7.82227 227.124 7.82227C231.075 7.84999 233.358 10.7719 233.358 14.3357V15.1715H222.504L222.502 15.1701ZM231.353 13.6676C231.353 11.1905 229.766 9.49257 227.122 9.49257C224.728 9.49257 222.558 11.5246 222.558 13.6676H231.354H231.353Z" fill="white"/>
<path d="M246.413 19.5534H246.359C245.472 20.9506 243.86 21.5147 242.22 21.5147C239.775 21.5147 237.571 20.1175 237.571 17.4839C237.571 12.9692 243.055 12.8874 246.413 12.8874C246.413 11.4639 245.231 10.549 243.834 10.549C242.517 10.549 241.415 11.1395 240.555 12.1084L238.406 9.90443C239.883 8.5072 242.034 7.80859 244.157 7.80859C248.86 7.80859 250.124 10.2011 250.124 14.5549V21.1932H246.415V19.5534H246.413ZM245.419 15.4684C244.183 15.4684 241.441 15.5765 241.441 17.3494C241.441 18.3169 242.463 18.7744 243.35 18.7744C244.936 18.7744 246.413 17.9413 246.413 16.3292V15.4698H245.419V15.4684Z" fill="white"/>
<path d="M251.843 8.13156H255.874V10.2274H255.928C256.787 8.64166 257.917 7.80859 259.69 7.80859C260.147 7.80859 260.657 7.83492 261.033 7.94304V11.6246C260.469 11.4639 259.904 11.3557 259.313 11.3557C256.249 11.3557 255.872 13.13 255.872 15.7373V21.1932H251.841V8.13156H251.843Z" fill="white"/>
<path d="M272.913 11.3569H269.366V15.7108C269.366 17.108 269.527 18.1296 271.275 18.1296C271.705 18.1296 272.566 18.0755 272.915 17.7539V21.1139C272.028 21.4369 271.034 21.5173 270.093 21.5173C267.405 21.5173 265.335 20.4153 265.335 17.5668V11.3583H262.756V8.1328H265.335V4.2627H269.366V8.1328H272.913V11.3583V11.3569Z" fill="white"/>
<path d="M108.782 0.138117H94.3285C93.1087 0.138117 92.1162 1.13059 92.1162 2.35039V16.7704C92.1162 16.7704 92.1162 18.9827 94.0804 18.9827H96.0764C98.0711 18.9827 98.0489 16.8036 98.0489 16.8036L98.0835 6.17198L108.748 6.13594C108.748 6.13594 110.961 6.13594 110.961 4.1496V2.13138C110.961 0.114553 108.782 0.136729 108.782 0.136729V0.138117Z" fill="white"/>
<path d="M103.047 27.8612H117.5C118.72 27.8612 119.713 26.8686 119.713 25.6488V11.2289C119.713 11.2289 119.713 9.0166 117.749 9.0166H115.753C113.758 9.0166 113.78 11.1957 113.78 11.1957L113.745 21.8273L103.08 21.8634C103.08 21.8634 100.868 21.8634 100.868 23.8497V25.8679C100.868 27.8848 103.047 27.8626 103.047 27.8626V27.8612Z" fill="white"/>
</svg>
