<svg width="231" height="200" viewBox="0 0 231 200" fill="none" xmlns="http://www.w3.org/2000/svg">
<path d="M147 8.11399C147 3.63276 150.675 0 155.207 0H193.1C195.277 0 197.365 0.854864 198.904 2.37653L210.596 13.936C212.135 15.4576 213 17.5215 213 19.6734V165.886C213 170.367 209.325 174 204.793 174H166.9C164.723 174 162.635 173.145 161.096 171.623L149.404 160.064C147.865 158.542 147 156.479 147 154.327V8.11399Z" fill="white"/>
<path fill-rule="evenodd" clip-rule="evenodd" d="M65.5 87H122.855C127.353 87 131 90.6328 131 95.114V149.574C131 154.055 127.353 157.688 122.855 157.688H68.8738C66.7136 157.688 64.6419 158.542 63.1144 160.064L51.5106 171.623C49.9831 173.145 47.9114 174 45.7512 174H8.14508C3.64668 174 0 170.367 0 165.886V116.864C0 112.383 3.64668 108.75 8.14508 108.75H57.3549C61.8533 108.75 65.5 105.117 65.5 100.636V87Z" fill="white"/>
<path fill-rule="evenodd" clip-rule="evenodd" d="M131 57.136C131 61.6172 127.353 65.25 122.855 65.25H73.6451C69.1467 65.25 65.5 68.8828 65.5 73.364V87H8.14508C3.64668 87 0 83.3672 0 78.886V24.4265C0 19.9453 3.64668 16.3125 8.14508 16.3125L62.1262 16.3125C64.2864 16.3125 66.3581 15.4576 67.8856 13.936L79.4894 2.37653C81.0169 0.854863 83.0886 0 85.2488 0H122.855C127.353 0 131 3.63276 131 8.11399V57.136Z" fill="white"/>
<path d="M0.349799 190.486C0.349799 191.42 0.644368 192.225 1.14145 192.72C2.22767 193.8 4.54739 194.258 9.26048 194.386C13.6974 194.514 14.1945 194.715 14.4891 195.008C14.6363 195.155 14.6916 195.32 14.6916 195.558C14.6916 195.759 14.6548 195.96 14.4707 196.144C13.9367 196.675 11.9852 196.766 9.20525 196.766C6.02023 196.766 1.89628 195.979 0 195.137V198.139C1.96992 198.963 5.52315 199.531 9.20525 199.531C14.1945 199.531 16.2933 198.78 17.2506 197.828C17.9686 197.114 18.1712 196.162 18.1712 195.173C18.1712 194.258 17.8766 193.397 17.3427 192.866C16.3117 191.841 14.1761 191.42 9.24207 191.31C5.89136 191.237 4.43693 191.127 4.05031 190.742C3.90303 190.596 3.82938 190.413 3.82938 190.156C3.82938 189.918 3.92144 189.735 4.06872 189.589C4.47375 189.186 5.81772 189.003 8.92909 189.003C11.7459 189.003 15.1518 189.607 17.1034 190.431V187.428C15.3912 186.751 12.1325 186.238 8.89227 186.238C4.54739 186.238 2.41178 186.769 1.34397 187.831C0.533904 188.637 0.349799 189.515 0.349799 190.486Z" fill="white"/>
<path d="M40.5835 186.476H20.5713V189.369H28.764V199.293H32.4277V189.369H40.5835V186.476Z" fill="white"/>
<path d="M38.0101 199.293H42.0604L43.8094 196.803H55.2607L57.0097 199.293H61.2441L51.9836 186.403H47.2705L38.0101 199.293ZM49.535 188.673L53.3828 194.148H45.6688L49.535 188.673Z" fill="white"/>
<path d="M78.6796 186.476H58.6674V189.369H66.86V199.293H70.5237V189.369H78.6796V186.476Z" fill="white"/>
<path d="M85.4403 191.456V189.387H99.1929V186.476H81.8502V199.293H99.1929V196.382H85.4403V194.184H98.8431V191.456H85.4403Z" fill="white"/>
<path d="M112.875 186.11C108.088 186.11 105.677 187.154 104.443 188.38C103.302 189.515 102.768 190.98 102.768 192.884C102.768 194.77 103.302 196.253 104.443 197.389C105.658 198.597 108.088 199.659 112.875 199.659C117.68 199.659 120.111 198.597 121.326 197.37C122.467 196.253 123.001 194.77 123.001 192.884C123.001 190.98 122.467 189.497 121.344 188.38C120.111 187.154 117.68 186.11 112.875 186.11ZM112.875 187.703C116.723 187.703 118.748 188.49 119.724 189.461C120.534 190.266 120.994 191.273 120.994 192.884C120.994 194.496 120.534 195.521 119.742 196.308C118.767 197.279 116.723 198.066 112.875 198.066C109.046 198.066 106.984 197.242 106.045 196.308C105.216 195.484 104.775 194.496 104.775 192.884C104.775 191.273 105.198 190.266 106.026 189.442C107.002 188.472 109.046 187.703 112.875 187.703Z" fill="white"/>
<path d="M129.374 192.244V188.124H143.55V186.476H127.386V199.293H129.374V193.855H143.292V192.244H129.374Z" fill="white"/>
<path d="M146.593 192.884C146.593 194.715 147.109 196.253 148.324 197.462C149.576 198.707 151.877 199.769 157.327 199.769C162.776 199.769 165.077 198.707 166.329 197.462C167.544 196.253 168.06 194.715 168.06 192.884C168.06 191.053 167.544 189.515 166.329 188.307C165.077 187.062 162.776 186 157.327 186C151.877 186 149.576 187.062 148.324 188.307C147.109 189.515 146.593 191.053 146.593 192.884ZM164.323 192.884C164.323 194.258 163.899 195.063 163.347 195.613C162.592 196.363 161.009 197.004 157.327 197.004C153.645 197.004 152.061 196.363 151.306 195.613C150.754 195.063 150.331 194.258 150.331 192.884C150.331 191.511 150.754 190.706 151.306 190.156C152.061 189.406 153.645 188.765 157.327 188.765C161.009 188.765 162.592 189.406 163.347 190.156C163.899 190.706 164.323 191.511 164.323 192.884Z" fill="white"/>
<path d="M177.161 186.476H171.601V199.293H175.155V189.204L186.017 199.293H191.393V186.476H187.839V196.382L177.161 186.476Z" fill="white"/>
<path d="M199.247 191.456V189.387H213V186.476H195.657V199.293H213V196.382H199.247V194.184H212.65V191.456H199.247Z" fill="white"/>
<path d="M225.889 10L221.902 0H223.516L226.304 7.33696L229.092 0H230.707L226.72 10H225.889ZM221.609 10V0H223.174V10H221.609ZM229.435 10V0H231V10H229.435ZM215.739 10V0.869564H217.304V10H215.739ZM213 1.52174V0H220.043V1.52174H213Z" fill="white"/>
</svg>
