<svg width="24" height="24" viewBox="0 0 24 24" fill="none" xmlns="http://www.w3.org/2000/svg">
<path d="M12 5.68742C8.01867 5.68742 5.22579 7.3694 5.22579 7.3694C6.75593 6.02381 9.42996 5.24864 9.42996 5.24864L9.17741 5C6.6668 5.04388 4.39387 6.75511 4.39387 6.75511C1.83869 12.0058 2.0021 16.5398 2.0021 16.5398C4.0819 19.1871 7.17189 18.997 7.17189 18.997L8.22665 17.6807C6.36968 17.2858 5.19608 15.6623 5.19608 15.6623C5.19608 15.6623 7.98896 17.5344 12 17.5344C16.011 17.5344 18.8039 15.6623 18.8039 15.6623C18.8039 15.6623 17.6303 17.2858 15.7734 17.6807L16.8281 18.997C16.8281 18.997 19.9181 19.1871 21.9979 16.5398C21.9979 16.5398 22.1613 12.0058 19.6061 6.75511C19.6061 6.75511 17.3332 5.04388 14.8226 5L14.57 5.24864C14.57 5.24864 17.2441 6.02381 18.7742 7.3694C18.7742 7.3694 15.9813 5.68742 12 5.68742ZM8.92487 11.2306C9.89049 11.2306 10.6778 12.0643 10.663 13.0881C10.663 14.0973 9.89049 14.9456 8.92487 14.9456C7.9741 14.9456 7.2016 14.0973 7.2016 13.0881C7.2016 12.0643 7.95925 11.2306 8.92487 11.2306ZM15.1197 11.2306C16.0853 11.2306 16.8578 12.0643 16.8578 13.0881C16.8578 14.0973 16.0853 14.9456 15.1197 14.9456C14.1689 14.9456 13.3964 14.0973 13.3964 13.0881C13.3964 12.0643 14.1541 11.2306 15.1197 11.2306Z" fill="#91493B"/>
</svg>
